ISO-10303-21;
HEADER;
/* Generated by software containing ST-Developer
 * from STEP Tools, Inc. (www.steptools.com) 
 */
/* OPTION: using custom renumber hook */

FILE_DESCRIPTION(
/* description */ ('STEP AP242 Edition 2',
'CAx-IF Rec.Pracs.---Representation and Presentation of Product Manufa
cturing Information (PMI)---4.0---2014-10-13',
'CAx-IF Rec.Pracs.---3D Tessellated Geometry---0.4---2014-09-14','2;1',
'CAx-IF Rec.Pracs.---User Defined Attributes---1.5---2016-08-15'),
/* implementation_level */ '2;1');

FILE_NAME(
/* name */ 'box',
/* time_stamp */ '2026-09-07T01:31:56Z',
/* author */ (''),
/* organization */ (''),
/* preprocessor_version */ 'ST-DEVELOPER v20',
/* originating_system */ 'ONSHAPE BY PTC INC, 1.220',
/* authorisation */ '  ');

FILE_SCHEMA (('AP242_MANAGED_MODEL_BASED_3D_ENGINEERING_MIM_LF { 1 0 10303 442 3 1 4 }'));
ENDSEC;

DATA;
#10=SHAPE_REPRESENTATION_RELATIONSHIP('','',#251,#11);
#11=ADVANCED_BREP_SHAPE_REPRESENTATION('',(#249),#397);
#12=CYLINDRICAL_SURFACE('',#266,0.00432718992937308);
#13=CIRCLE('',#254,0.00432718992937308);
#14=CIRCLE('',#267,0.00432718992937308);
#15=ORIENTED_EDGE('',*,*,#75,.F.);
#16=ORIENTED_EDGE('',*,*,#76,.T.);
#17=ORIENTED_EDGE('',*,*,#77,.T.);
#18=ORIENTED_EDGE('',*,*,#78,.F.);
#19=ORIENTED_EDGE('',*,*,#79,.F.);
#20=ORIENTED_EDGE('',*,*,#80,.T.);
#21=ORIENTED_EDGE('',*,*,#81,.F.);
#22=ORIENTED_EDGE('',*,*,#82,.F.);
#23=ORIENTED_EDGE('',*,*,#83,.T.);
#24=ORIENTED_EDGE('',*,*,#84,.T.);
#25=ORIENTED_EDGE('',*,*,#85,.F.);
#26=ORIENTED_EDGE('',*,*,#86,.T.);
#27=ORIENTED_EDGE('',*,*,#87,.T.);
#28=ORIENTED_EDGE('',*,*,#88,.F.);
#29=ORIENTED_EDGE('',*,*,#89,.F.);
#30=ORIENTED_EDGE('',*,*,#90,.F.);
#31=ORIENTED_EDGE('',*,*,#91,.T.);
#32=ORIENTED_EDGE('',*,*,#82,.T.);
#33=ORIENTED_EDGE('',*,*,#92,.T.);
#34=ORIENTED_EDGE('',*,*,#93,.F.);
#35=ORIENTED_EDGE('',*,*,#94,.F.);
#36=ORIENTED_EDGE('',*,*,#90,.T.);
#37=ORIENTED_EDGE('',*,*,#95,.T.);
#38=ORIENTED_EDGE('',*,*,#84,.F.);
#39=ORIENTED_EDGE('',*,*,#96,.F.);
#40=ORIENTED_EDGE('',*,*,#93,.T.);
#41=ORIENTED_EDGE('',*,*,#91,.F.);
#42=ORIENTED_EDGE('',*,*,#94,.T.);
#43=ORIENTED_EDGE('',*,*,#96,.T.);
#44=ORIENTED_EDGE('',*,*,#83,.F.);
#45=ORIENTED_EDGE('',*,*,#89,.T.);
#46=ORIENTED_EDGE('',*,*,#81,.T.);
#47=ORIENTED_EDGE('',*,*,#95,.F.);
#48=ORIENTED_EDGE('',*,*,#92,.F.);
#49=ORIENTED_EDGE('',*,*,#86,.F.);
#50=ORIENTED_EDGE('',*,*,#97,.F.);
#51=ORIENTED_EDGE('',*,*,#75,.T.);
#52=ORIENTED_EDGE('',*,*,#98,.T.);
#53=ORIENTED_EDGE('',*,*,#85,.T.);
#54=ORIENTED_EDGE('',*,*,#99,.F.);
#55=ORIENTED_EDGE('',*,*,#76,.F.);
#56=ORIENTED_EDGE('',*,*,#97,.T.);
#57=ORIENTED_EDGE('',*,*,#88,.T.);
#58=ORIENTED_EDGE('',*,*,#100,.F.);
#59=ORIENTED_EDGE('',*,*,#77,.F.);
#60=ORIENTED_EDGE('',*,*,#99,.T.);
#61=ORIENTED_EDGE('',*,*,#87,.F.);
#62=ORIENTED_EDGE('',*,*,#98,.F.);
#63=ORIENTED_EDGE('',*,*,#78,.T.);
#64=ORIENTED_EDGE('',*,*,#100,.T.);
#65=ORIENTED_EDGE('',*,*,#80,.F.);
#66=ORIENTED_EDGE('',*,*,#101,.F.);
#67=ORIENTED_EDGE('',*,*,#102,.T.);
#68=ORIENTED_EDGE('',*,*,#103,.T.);
#69=ORIENTED_EDGE('',*,*,#79,.T.);
#70=ORIENTED_EDGE('',*,*,#103,.F.);
#71=ORIENTED_EDGE('',*,*,#104,.F.);
#72=ORIENTED_EDGE('',*,*,#101,.T.);
#73=ORIENTED_EDGE('',*,*,#102,.F.);
#74=ORIENTED_EDGE('',*,*,#104,.T.);
#75=EDGE_CURVE('',#105,#106,#125,.T.);
#76=EDGE_CURVE('',#105,#107,#126,.T.);
#77=EDGE_CURVE('',#107,#108,#127,.T.);
#78=EDGE_CURVE('',#106,#108,#128,.T.);
#79=EDGE_CURVE('',#109,#110,#13,.T.);
#80=EDGE_CURVE('',#109,#110,#129,.T.);
#81=EDGE_CURVE('',#111,#112,#130,.T.);
#82=EDGE_CURVE('',#113,#111,#131,.T.);
#83=EDGE_CURVE('',#113,#114,#132,.T.);
#84=EDGE_CURVE('',#114,#112,#133,.T.);
#85=EDGE_CURVE('',#115,#116,#134,.T.);
#86=EDGE_CURVE('',#115,#117,#135,.T.);
#87=EDGE_CURVE('',#117,#118,#136,.T.);
#88=EDGE_CURVE('',#116,#118,#137,.T.);
#89=EDGE_CURVE('',#119,#111,#138,.T.);
#90=EDGE_CURVE('',#120,#119,#139,.T.);
#91=EDGE_CURVE('',#120,#113,#140,.T.);
#92=EDGE_CURVE('',#119,#121,#141,.T.);
#93=EDGE_CURVE('',#122,#121,#142,.T.);
#94=EDGE_CURVE('',#120,#122,#143,.T.);
#95=EDGE_CURVE('',#121,#112,#144,.T.);
#96=EDGE_CURVE('',#122,#114,#145,.T.);
#97=EDGE_CURVE('',#105,#115,#146,.T.);
#98=EDGE_CURVE('',#106,#117,#147,.T.);
#99=EDGE_CURVE('',#107,#116,#148,.T.);
#100=EDGE_CURVE('',#108,#118,#149,.T.);
#101=EDGE_CURVE('',#123,#109,#150,.T.);
#102=EDGE_CURVE('',#123,#124,#151,.T.);
#103=EDGE_CURVE('',#124,#110,#152,.T.);
#104=EDGE_CURVE('',#123,#124,#14,.T.);
#105=VERTEX_POINT('',#334);
#106=VERTEX_POINT('',#335);
#107=VERTEX_POINT('',#337);
#108=VERTEX_POINT('',#339);
#109=VERTEX_POINT('',#342);
#110=VERTEX_POINT('',#343);
#111=VERTEX_POINT('',#347);
#112=VERTEX_POINT('',#348);
#113=VERTEX_POINT('',#350);
#114=VERTEX_POINT('',#352);
#115=VERTEX_POINT('',#355);
#116=VERTEX_POINT('',#356);
#117=VERTEX_POINT('',#358);
#118=VERTEX_POINT('',#360);
#119=VERTEX_POINT('',#364);
#120=VERTEX_POINT('',#366);
#121=VERTEX_POINT('',#370);
#122=VERTEX_POINT('',#372);
#123=VERTEX_POINT('',#389);
#124=VERTEX_POINT('',#391);
#125=LINE('',#333,#153);
#126=LINE('',#336,#154);
#127=LINE('',#338,#155);
#128=LINE('',#340,#156);
#129=LINE('',#344,#157);
#130=LINE('',#346,#158);
#131=LINE('',#349,#159);
#132=LINE('',#351,#160);
#133=LINE('',#353,#161);
#134=LINE('',#354,#162);
#135=LINE('',#357,#163);
#136=LINE('',#359,#164);
#137=LINE('',#361,#165);
#138=LINE('',#363,#166);
#139=LINE('',#365,#167);
#140=LINE('',#367,#168);
#141=LINE('',#369,#169);
#142=LINE('',#371,#170);
#143=LINE('',#373,#171);
#144=LINE('',#375,#172);
#145=LINE('',#376,#173);
#146=LINE('',#380,#174);
#147=LINE('',#381,#175);
#148=LINE('',#383,#176);
#149=LINE('',#385,#177);
#150=LINE('',#388,#178);
#151=LINE('',#390,#179);
#152=LINE('',#392,#180);
#153=VECTOR('',#273,1.);
#154=VECTOR('',#274,1.);
#155=VECTOR('',#275,1.);
#156=VECTOR('',#276,1.);
#157=VECTOR('',#279,1.);
#158=VECTOR('',#282,1.);
#159=VECTOR('',#283,1.);
#160=VECTOR('',#284,1.);
#161=VECTOR('',#285,1.);
#162=VECTOR('',#286,1.);
#163=VECTOR('',#287,1.);
#164=VECTOR('',#288,1.);
#165=VECTOR('',#289,1.);
#166=VECTOR('',#292,1.);
#167=VECTOR('',#293,1.);
#168=VECTOR('',#294,1.);
#169=VECTOR('',#297,1.);
#170=VECTOR('',#298,1.);
#171=VECTOR('',#299,1.);
#172=VECTOR('',#302,1.);
#173=VECTOR('',#303,1.);
#174=VECTOR('',#310,1.);
#175=VECTOR('',#311,1.);
#176=VECTOR('',#314,1.);
#177=VECTOR('',#317,1.);
#178=VECTOR('',#322,1.);
#179=VECTOR('',#323,1.);
#180=VECTOR('',#324,1.);
#181=EDGE_LOOP('',(#15,#16,#17,#18));
#182=EDGE_LOOP('',(#19,#20));
#183=EDGE_LOOP('',(#21,#22,#23,#24));
#184=EDGE_LOOP('',(#25,#26,#27,#28));
#185=EDGE_LOOP('',(#29,#30,#31,#32));
#186=EDGE_LOOP('',(#33,#34,#35,#36));
#187=EDGE_LOOP('',(#37,#38,#39,#40));
#188=EDGE_LOOP('',(#41,#42,#43,#44));
#189=EDGE_LOOP('',(#45,#46,#47,#48));
#190=EDGE_LOOP('',(#49,#50,#51,#52));
#191=EDGE_LOOP('',(#53,#54,#55,#56));
#192=EDGE_LOOP('',(#57,#58,#59,#60));
#193=EDGE_LOOP('',(#61,#62,#63,#64));
#194=EDGE_LOOP('',(#65,#66,#67,#68));
#195=EDGE_LOOP('',(#69,#70,#71,#72));
#196=EDGE_LOOP('',(#73,#74));
#197=FACE_BOUND('',#181,.T.);
#198=FACE_BOUND('',#182,.T.);
#199=FACE_BOUND('',#183,.T.);
#200=FACE_BOUND('',#184,.T.);
#201=FACE_BOUND('',#185,.T.);
#202=FACE_BOUND('',#186,.T.);
#203=FACE_BOUND('',#187,.T.);
#204=FACE_BOUND('',#188,.T.);
#205=FACE_BOUND('',#189,.T.);
#206=FACE_BOUND('',#190,.T.);
#207=FACE_BOUND('',#191,.T.);
#208=FACE_BOUND('',#192,.T.);
#209=FACE_BOUND('',#193,.T.);
#210=FACE_BOUND('',#194,.T.);
#211=FACE_BOUND('',#195,.T.);
#212=FACE_BOUND('',#196,.T.);
#213=PLANE('',#253);
#214=PLANE('',#255);
#215=PLANE('',#256);
#216=PLANE('',#257);
#217=PLANE('',#258);
#218=PLANE('',#259);
#219=PLANE('',#260);
#220=PLANE('',#261);
#221=PLANE('',#262);
#222=PLANE('',#263);
#223=PLANE('',#264);
#224=PLANE('',#265);
#225=PLANE('',#268);
#226=ADVANCED_FACE('',(#197,#198),#213,.T.);
#227=ADVANCED_FACE('',(#199,#200),#214,.T.);
#228=ADVANCED_FACE('',(#201),#215,.T.);
#229=ADVANCED_FACE('',(#202),#216,.F.);
#230=ADVANCED_FACE('',(#203),#217,.F.);
#231=ADVANCED_FACE('',(#204),#218,.T.);
#232=ADVANCED_FACE('',(#205),#219,.F.);
#233=ADVANCED_FACE('',(#206),#220,.T.);
#234=ADVANCED_FACE('',(#207),#221,.F.);
#235=ADVANCED_FACE('',(#208),#222,.F.);
#236=ADVANCED_FACE('',(#209),#223,.T.);
#237=ADVANCED_FACE('',(#210),#224,.T.);
#238=ADVANCED_FACE('',(#211),#12,.F.);
#239=ADVANCED_FACE('',(#212),#225,.T.);
#240=CLOSED_SHELL('',(#226,#227,#228,#229,#230,#231,#232,#233,#234,#235,
#236,#237,#238,#239));
#241=STYLED_ITEM('',(#242),#249);
#242=PRESENTATION_STYLE_ASSIGNMENT((#243));
#243=SURFACE_STYLE_USAGE(.BOTH.,#244);
#244=SURFACE_SIDE_STYLE('',(#245));
#245=SURFACE_STYLE_FILL_AREA(#246);
#246=FILL_AREA_STYLE('',(#247));
#247=FILL_AREA_STYLE_COLOUR('',#248);
#248=COLOUR_RGB('',0.615686274509804,0.811764705882353,0.929411764705882);
#249=MANIFOLD_SOLID_BREP('Part 1',#240);
#250=SHAPE_DEFINITION_REPRESENTATION(#402,#251);
#251=SHAPE_REPRESENTATION('Part 1',(#252),#397);
#252=AXIS2_PLACEMENT_3D('',#331,#269,#270);
#253=AXIS2_PLACEMENT_3D('',#332,#271,#272);
#254=AXIS2_PLACEMENT_3D('',#341,#277,#278);
#255=AXIS2_PLACEMENT_3D('',#345,#280,#281);
#256=AXIS2_PLACEMENT_3D('',#362,#290,#291);
#257=AXIS2_PLACEMENT_3D('',#368,#295,#296);
#258=AXIS2_PLACEMENT_3D('',#374,#300,#301);
#259=AXIS2_PLACEMENT_3D('',#377,#304,#305);
#260=AXIS2_PLACEMENT_3D('',#378,#306,#307);
#261=AXIS2_PLACEMENT_3D('',#379,#308,#309);
#262=AXIS2_PLACEMENT_3D('',#382,#312,#313);
#263=AXIS2_PLACEMENT_3D('',#384,#315,#316);
#264=AXIS2_PLACEMENT_3D('',#386,#318,#319);
#265=AXIS2_PLACEMENT_3D('',#387,#320,#321);
#266=AXIS2_PLACEMENT_3D('',#393,#325,#326);
#267=AXIS2_PLACEMENT_3D('',#394,#327,#328);
#268=AXIS2_PLACEMENT_3D('',#395,#329,#330);
#269=DIRECTION('',(0.,0.,1.));
#270=DIRECTION('',(1.,0.,0.));
#271=DIRECTION('',(0.,-1.,0.));
#272=DIRECTION('',(1.,0.,0.));
#273=DIRECTION('',(1.,0.,0.));
#274=DIRECTION('',(0.,0.,-1.));
#275=DIRECTION('',(1.,0.,0.));
#276=DIRECTION('',(0.,0.,-1.));
#277=DIRECTION('',(0.,-1.,0.));
#278=DIRECTION('',(0.,0.,-1.));
#279=DIRECTION('',(1.,0.,0.));
#280=DIRECTION('',(0.,-1.,0.));
#281=DIRECTION('',(0.,0.,-1.));
#282=DIRECTION('',(-1.,0.,0.));
#283=DIRECTION('',(0.,0.,-1.));
#284=DIRECTION('',(-1.,0.,0.));
#285=DIRECTION('',(0.,0.,-1.));
#286=DIRECTION('',(0.,0.,-1.));
#287=DIRECTION('',(1.,0.,0.));
#288=DIRECTION('',(0.,0.,-1.));
#289=DIRECTION('',(1.,0.,0.));
#290=DIRECTION('',(1.,3.20545087071455E-16,0.));
#291=DIRECTION('',(-3.20545087071455E-16,1.,0.));
#292=DIRECTION('',(3.20545087071455E-16,-1.,0.));
#293=DIRECTION('',(0.,0.,-1.));
#294=DIRECTION('',(3.20545087071455E-16,-1.,0.));
#295=DIRECTION('',(0.,-1.,0.));
#296=DIRECTION('',(0.,0.,-1.));
#297=DIRECTION('',(-1.,0.,0.));
#298=DIRECTION('',(0.,0.,-1.));
#299=DIRECTION('',(-1.,0.,0.));
#300=DIRECTION('',(1.,0.,0.));
#301=DIRECTION('',(0.,0.,-1.));
#302=DIRECTION('',(0.,-1.,0.));
#303=DIRECTION('',(0.,-1.,0.));
#304=DIRECTION('',(0.,0.,1.));
#305=DIRECTION('',(1.,0.,0.));
#306=DIRECTION('',(0.,0.,1.));
#307=DIRECTION('',(1.,0.,0.));
#308=DIRECTION('',(0.,0.,-1.));
#309=DIRECTION('',(-1.,0.,0.));
#310=DIRECTION('',(0.,-1.,0.));
#311=DIRECTION('',(0.,-1.,0.));
#312=DIRECTION('',(-1.,0.,0.));
#313=DIRECTION('',(0.,0.,1.));
#314=DIRECTION('',(0.,-1.,0.));
#315=DIRECTION('',(0.,0.,-1.));
#316=DIRECTION('',(-1.,0.,0.));
#317=DIRECTION('',(0.,-1.,0.));
#318=DIRECTION('',(-1.,0.,0.));
#319=DIRECTION('',(0.,0.,1.));
#320=DIRECTION('',(0.,0.,-1.));
#321=DIRECTION('',(-1.,0.,0.));
#322=DIRECTION('',(0.,-1.,0.));
#323=DIRECTION('',(1.,0.,0.));
#324=DIRECTION('',(0.,-1.,0.));
#325=DIRECTION('',(0.,-1.,0.));
#326=DIRECTION('',(0.,0.,-1.));
#327=DIRECTION('',(0.,-1.,0.));
#328=DIRECTION('',(0.,0.,-1.));
#329=DIRECTION('',(0.,-1.,0.));
#330=DIRECTION('',(1.,0.,0.));
#331=CARTESIAN_POINT('',(0.,0.,0.));
#332=CARTESIAN_POINT('',(-0.0567552306767999,-0.0631394432627757,0.0062));
#333=CARTESIAN_POINT('',(-0.0571095067384152,-0.0631394432627757,0.0107434773542134));
#334=CARTESIAN_POINT('',(-0.063917844753406,-0.0631394432627757,0.0107434773542134));
#335=CARTESIAN_POINT('',(-0.0503011687234245,-0.0631394432627757,0.0107434773542134));
#336=CARTESIAN_POINT('',(-0.063917844753406,-0.0631394432627757,0.00579400258247094));
#337=CARTESIAN_POINT('',(-0.063917844753406,-0.0631394432627757,0.000844527810728475));
#338=CARTESIAN_POINT('',(-0.0571095067384152,-0.0631394432627757,0.000844527810728475));
#339=CARTESIAN_POINT('',(-0.0503011687234245,-0.0631394432627757,0.000844527810728475));
#340=CARTESIAN_POINT('',(-0.0503011687234245,-0.0631394432627757,0.00579400258247094));
#341=CARTESIAN_POINT('',(-0.0579912704367556,-0.0631394432627757,0.0124350516650086));
#342=CARTESIAN_POINT('',(-0.0605064477168795,-0.0631394432627757,0.00891390754208263));
#343=CARTESIAN_POINT('',(-0.0554760931566316,-0.0631394432627757,0.00891390754208264));
#344=CARTESIAN_POINT('',(-0.0579912704367556,-0.0631394432627757,0.00891390754208263));
#345=CARTESIAN_POINT('',(-0.0567552306767999,-0.0641394432627757,0.0124));
#346=CARTESIAN_POINT('',(-0.0567552306767999,-0.0641394432627757,0.));
#347=CARTESIAN_POINT('',(-0.0484753014425206,-0.0641394432627757,0.));
#348=CARTESIAN_POINT('',(-0.0650351599110792,-0.0641394432627757,0.));
#349=CARTESIAN_POINT('',(-0.0484753014425206,-0.0641394432627757,0.0124));
#350=CARTESIAN_POINT('',(-0.0484753014425206,-0.0641394432627757,0.0124));
#351=CARTESIAN_POINT('',(-0.0567552306767999,-0.0641394432627757,0.0124));
#352=CARTESIAN_POINT('',(-0.0650351599110792,-0.0641394432627757,0.0124));
#353=CARTESIAN_POINT('',(-0.0650351599110792,-0.0641394432627757,0.0124));
#354=CARTESIAN_POINT('',(-0.063917844753406,-0.0641394432627757,0.00579400258247094));
#355=CARTESIAN_POINT('',(-0.063917844753406,-0.0641394432627757,0.0107434773542134));
#356=CARTESIAN_POINT('',(-0.063917844753406,-0.0641394432627757,0.000844527810728475));
#357=CARTESIAN_POINT('',(-0.0571095067384152,-0.0641394432627757,0.0107434773542134));
#358=CARTESIAN_POINT('',(-0.0503011687234245,-0.0641394432627757,0.0107434773542134));
#359=CARTESIAN_POINT('',(-0.0503011687234245,-0.0641394432627757,0.00579400258247094));
#360=CARTESIAN_POINT('',(-0.0503011687234245,-0.0641394432627757,0.000844527810728475));
#361=CARTESIAN_POINT('',(-0.0571095067384152,-0.0641394432627757,0.000844527810728475));
#362=CARTESIAN_POINT('',(-0.0484753014425206,-0.0533158584009674,0.0124));
#363=CARTESIAN_POINT('',(-0.0484753014425206,-0.0533158584009674,0.));
#364=CARTESIAN_POINT('',(-0.0484753014425206,-0.0424922735391591,0.));
#365=CARTESIAN_POINT('',(-0.0484753014425206,-0.0424922735391591,0.0124));
#366=CARTESIAN_POINT('',(-0.0484753014425206,-0.0424922735391591,0.0124));
#367=CARTESIAN_POINT('',(-0.0484753014425206,-0.0533158584009674,0.0124));
#368=CARTESIAN_POINT('',(-0.0567552306767999,-0.0424922735391591,0.0124));
#369=CARTESIAN_POINT('',(-0.0567552306767999,-0.0424922735391591,0.));
#370=CARTESIAN_POINT('',(-0.0650351599110792,-0.0424922735391591,0.));
#371=CARTESIAN_POINT('',(-0.0650351599110792,-0.0424922735391591,0.0124));
#372=CARTESIAN_POINT('',(-0.0650351599110792,-0.0424922735391591,0.0124));
#373=CARTESIAN_POINT('',(-0.0567552306767999,-0.0424922735391591,0.0124));
#374=CARTESIAN_POINT('',(-0.0650351599110792,-0.0533158584009674,0.0124));
#375=CARTESIAN_POINT('',(-0.0650351599110792,-0.0533158584009674,0.));
#376=CARTESIAN_POINT('',(-0.0650351599110792,-0.0533158584009674,0.0124));
#377=CARTESIAN_POINT('',(-0.0567552306767999,-0.0533158584009674,0.0124));
#378=CARTESIAN_POINT('',(-0.0567552306767999,-0.0533158584009674,0.));
#379=CARTESIAN_POINT('',(-0.0571095067384152,-0.0631394432627757,0.0107434773542134));
#380=CARTESIAN_POINT('',(-0.063917844753406,-0.0631394432627757,0.0107434773542134));
#381=CARTESIAN_POINT('',(-0.0503011687234245,-0.0631394432627757,0.0107434773542134));
#382=CARTESIAN_POINT('',(-0.063917844753406,-0.0631394432627757,0.00579400258247094));
#383=CARTESIAN_POINT('',(-0.063917844753406,-0.0631394432627757,0.000844527810728475));
#384=CARTESIAN_POINT('',(-0.0571095067384152,-0.0631394432627757,0.000844527810728475));
#385=CARTESIAN_POINT('',(-0.0503011687234245,-0.0631394432627757,0.000844527810728475));
#386=CARTESIAN_POINT('',(-0.0503011687234245,-0.0631394432627757,0.00579400258247094));
#387=CARTESIAN_POINT('',(-0.0579912704367556,-0.0624394432627757,0.00891390754208263));
#388=CARTESIAN_POINT('',(-0.0605064477168795,-0.0624394432627757,0.00891390754208263));
#389=CARTESIAN_POINT('',(-0.0605064477168795,-0.0624394432627757,0.00891390754208263));
#390=CARTESIAN_POINT('',(-0.0579912704367556,-0.0624394432627757,0.00891390754208263));
#391=CARTESIAN_POINT('',(-0.0554760931566316,-0.0624394432627757,0.00891390754208264));
#392=CARTESIAN_POINT('',(-0.0554760931566316,-0.0624394432627757,0.00891390754208264));
#393=CARTESIAN_POINT('',(-0.0579912704367556,-0.0624394432627757,0.0124350516650086));
#394=CARTESIAN_POINT('',(-0.0579912704367556,-0.0624394432627757,0.0124350516650086));
#395=CARTESIAN_POINT('',(-0.0571095067384152,-0.0624394432627757,0.00579400258247094));
#396=MECHANICAL_DESIGN_GEOMETRIC_PRESENTATION_REPRESENTATION('',(#241),
#397);
#397=(
GEOMETRIC_REPRESENTATION_CONTEXT(3)
GLOBAL_UNCERTAINTY_ASSIGNED_CONTEXT((#398))
GLOBAL_UNIT_ASSIGNED_CONTEXT((#401,#400,#399))
REPRESENTATION_CONTEXT('Part 1','TOP_LEVEL_ASSEMBLY_PART')
);
#398=UNCERTAINTY_MEASURE_WITH_UNIT(LENGTH_MEASURE(1.E-8),#401,
'DISTANCE_ACCURACY_VALUE','Maximum Tolerance applied to model');
#399=(
NAMED_UNIT(*)
SI_UNIT($,.STERADIAN.)
SOLID_ANGLE_UNIT()
);
#400=(
NAMED_UNIT(*)
PLANE_ANGLE_UNIT()
SI_UNIT($,.RADIAN.)
);
#401=(
LENGTH_UNIT()
NAMED_UNIT(*)
SI_UNIT($,.METRE.)
);
#402=PRODUCT_DEFINITION_SHAPE('','',#403);
#403=PRODUCT_DEFINITION('','',#405,#404);
#404=PRODUCT_DEFINITION_CONTEXT('',#411,'design');
#405=PRODUCT_DEFINITION_FORMATION_WITH_SPECIFIED_SOURCE('','',#407,
 .NOT_KNOWN.);
#406=PRODUCT_RELATED_PRODUCT_CATEGORY('','',(#407));
#407=PRODUCT('Part 1','Part 1','Part 1',(#409));
#408=PRODUCT_CATEGORY('','');
#409=PRODUCT_CONTEXT('',#411,'mechanical');
#410=APPLICATION_PROTOCOL_DEFINITION('international standard',
'ap242_managed_model_based_3d_engineering',2020,#411);
#411=APPLICATION_CONTEXT('managed model based 3d engineering');
ENDSEC;
END-ISO-10303-21;
