ISO-10303-21;
HEADER;
/* Generated by software containing ST-Developer
 * from STEP Tools, Inc. (www.steptools.com) 
 */
/* OPTION: using custom renumber hook */

FILE_DESCRIPTION(
/* description */ ('STEP AP242 Edition 2',
'CAx-IF Rec.Pracs.---Representation and Presentation of Product Manufa
cturing Information (PMI)---4.0---2014-10-13',
'CAx-IF Rec.Pracs.---3D Tessellated Geometry---0.4---2014-09-14','2;1',
'CAx-IF Rec.Pracs.---User Defined Attributes---1.5---2016-08-15'),
/* implementation_level */ '2;1');

FILE_NAME(
/* name */ 'other side plate',
/* time_stamp */ '2026-09-07T01:32:36Z',
/* author */ (''),
/* organization */ (''),
/* preprocessor_version */ 'ST-DEVELOPER v20',
/* originating_system */ 'ONSHAPE BY PTC INC, 1.220',
/* authorisation */ '  ');

FILE_SCHEMA (('AP242_MANAGED_MODEL_BASED_3D_ENGINEERING_MIM_LF { 1 0 10303 442 3 1 4 }'));
ENDSEC;

DATA;
#10=SHAPE_REPRESENTATION_RELATIONSHIP('','',#1214,#11);
#11=ADVANCED_BREP_SHAPE_REPRESENTATION('',(#1212),#1904);
#12=ORIENTED_EDGE('',*,*,#342,.T.);
#13=ORIENTED_EDGE('',*,*,#343,.T.);
#14=ORIENTED_EDGE('',*,*,#344,.F.);
#15=ORIENTED_EDGE('',*,*,#345,.F.);
#16=ORIENTED_EDGE('',*,*,#346,.F.);
#17=ORIENTED_EDGE('',*,*,#347,.T.);
#18=ORIENTED_EDGE('',*,*,#348,.T.);
#19=ORIENTED_EDGE('',*,*,#349,.F.);
#20=ORIENTED_EDGE('',*,*,#350,.F.);
#21=ORIENTED_EDGE('',*,*,#351,.T.);
#22=ORIENTED_EDGE('',*,*,#352,.T.);
#23=ORIENTED_EDGE('',*,*,#353,.T.);
#24=ORIENTED_EDGE('',*,*,#354,.F.);
#25=ORIENTED_EDGE('',*,*,#355,.F.);
#26=ORIENTED_EDGE('',*,*,#356,.T.);
#27=ORIENTED_EDGE('',*,*,#357,.F.);
#28=ORIENTED_EDGE('',*,*,#358,.T.);
#29=ORIENTED_EDGE('',*,*,#359,.F.);
#30=ORIENTED_EDGE('',*,*,#360,.T.);
#31=ORIENTED_EDGE('',*,*,#361,.T.);
#32=ORIENTED_EDGE('',*,*,#362,.T.);
#33=ORIENTED_EDGE('',*,*,#363,.T.);
#34=ORIENTED_EDGE('',*,*,#364,.T.);
#35=ORIENTED_EDGE('',*,*,#365,.F.);
#36=ORIENTED_EDGE('',*,*,#366,.F.);
#37=ORIENTED_EDGE('',*,*,#367,.T.);
#38=ORIENTED_EDGE('',*,*,#368,.T.);
#39=ORIENTED_EDGE('',*,*,#369,.T.);
#40=ORIENTED_EDGE('',*,*,#370,.T.);
#41=ORIENTED_EDGE('',*,*,#371,.F.);
#42=ORIENTED_EDGE('',*,*,#372,.T.);
#43=ORIENTED_EDGE('',*,*,#373,.T.);
#44=ORIENTED_EDGE('',*,*,#374,.T.);
#45=ORIENTED_EDGE('',*,*,#375,.T.);
#46=ORIENTED_EDGE('',*,*,#376,.F.);
#47=ORIENTED_EDGE('',*,*,#377,.F.);
#48=ORIENTED_EDGE('',*,*,#378,.T.);
#49=ORIENTED_EDGE('',*,*,#379,.F.);
#50=ORIENTED_EDGE('',*,*,#380,.F.);
#51=ORIENTED_EDGE('',*,*,#381,.F.);
#52=ORIENTED_EDGE('',*,*,#382,.F.);
#53=ORIENTED_EDGE('',*,*,#383,.T.);
#54=ORIENTED_EDGE('',*,*,#384,.T.);
#55=ORIENTED_EDGE('',*,*,#385,.T.);
#56=ORIENTED_EDGE('',*,*,#386,.T.);
#57=ORIENTED_EDGE('',*,*,#387,.T.);
#58=ORIENTED_EDGE('',*,*,#388,.F.);
#59=ORIENTED_EDGE('',*,*,#389,.T.);
#60=ORIENTED_EDGE('',*,*,#390,.T.);
#61=ORIENTED_EDGE('',*,*,#391,.F.);
#62=ORIENTED_EDGE('',*,*,#392,.F.);
#63=ORIENTED_EDGE('',*,*,#393,.T.);
#64=ORIENTED_EDGE('',*,*,#342,.F.);
#65=ORIENTED_EDGE('',*,*,#394,.F.);
#66=ORIENTED_EDGE('',*,*,#395,.T.);
#67=ORIENTED_EDGE('',*,*,#396,.T.);
#68=ORIENTED_EDGE('',*,*,#345,.T.);
#69=ORIENTED_EDGE('',*,*,#397,.F.);
#70=ORIENTED_EDGE('',*,*,#398,.F.);
#71=ORIENTED_EDGE('',*,*,#394,.T.);
#72=ORIENTED_EDGE('',*,*,#344,.T.);
#73=ORIENTED_EDGE('',*,*,#399,.F.);
#74=ORIENTED_EDGE('',*,*,#400,.F.);
#75=ORIENTED_EDGE('',*,*,#397,.T.);
#76=ORIENTED_EDGE('',*,*,#343,.F.);
#77=ORIENTED_EDGE('',*,*,#396,.F.);
#78=ORIENTED_EDGE('',*,*,#401,.T.);
#79=ORIENTED_EDGE('',*,*,#399,.T.);
#80=ORIENTED_EDGE('',*,*,#402,.F.);
#81=ORIENTED_EDGE('',*,*,#403,.T.);
#82=ORIENTED_EDGE('',*,*,#404,.T.);
#83=ORIENTED_EDGE('',*,*,#405,.F.);
#84=ORIENTED_EDGE('',*,*,#395,.F.);
#85=ORIENTED_EDGE('',*,*,#398,.T.);
#86=ORIENTED_EDGE('',*,*,#400,.T.);
#87=ORIENTED_EDGE('',*,*,#401,.F.);
#88=ORIENTED_EDGE('',*,*,#406,.T.);
#89=ORIENTED_EDGE('',*,*,#402,.T.);
#90=ORIENTED_EDGE('',*,*,#407,.F.);
#91=ORIENTED_EDGE('',*,*,#347,.F.);
#92=ORIENTED_EDGE('',*,*,#407,.T.);
#93=ORIENTED_EDGE('',*,*,#405,.T.);
#94=ORIENTED_EDGE('',*,*,#408,.F.);
#95=ORIENTED_EDGE('',*,*,#348,.F.);
#96=ORIENTED_EDGE('',*,*,#349,.T.);
#97=ORIENTED_EDGE('',*,*,#408,.T.);
#98=ORIENTED_EDGE('',*,*,#404,.F.);
#99=ORIENTED_EDGE('',*,*,#409,.F.);
#100=ORIENTED_EDGE('',*,*,#346,.T.);
#101=ORIENTED_EDGE('',*,*,#409,.T.);
#102=ORIENTED_EDGE('',*,*,#403,.F.);
#103=ORIENTED_EDGE('',*,*,#406,.F.);
#104=ORIENTED_EDGE('',*,*,#410,.F.);
#105=ORIENTED_EDGE('',*,*,#411,.F.);
#106=ORIENTED_EDGE('',*,*,#412,.T.);
#107=ORIENTED_EDGE('',*,*,#393,.F.);
#108=ORIENTED_EDGE('',*,*,#413,.F.);
#109=ORIENTED_EDGE('',*,*,#414,.T.);
#110=ORIENTED_EDGE('',*,*,#415,.T.);
#111=ORIENTED_EDGE('',*,*,#389,.F.);
#112=ORIENTED_EDGE('',*,*,#392,.T.);
#113=ORIENTED_EDGE('',*,*,#416,.F.);
#114=ORIENTED_EDGE('',*,*,#417,.F.);
#115=ORIENTED_EDGE('',*,*,#413,.T.);
#116=ORIENTED_EDGE('',*,*,#391,.T.);
#117=ORIENTED_EDGE('',*,*,#418,.F.);
#118=ORIENTED_EDGE('',*,*,#419,.F.);
#119=ORIENTED_EDGE('',*,*,#416,.T.);
#120=ORIENTED_EDGE('',*,*,#390,.F.);
#121=ORIENTED_EDGE('',*,*,#415,.F.);
#122=ORIENTED_EDGE('',*,*,#420,.T.);
#123=ORIENTED_EDGE('',*,*,#418,.T.);
#124=ORIENTED_EDGE('',*,*,#414,.F.);
#125=ORIENTED_EDGE('',*,*,#417,.T.);
#126=ORIENTED_EDGE('',*,*,#419,.T.);
#127=ORIENTED_EDGE('',*,*,#420,.F.);
#128=ORIENTED_EDGE('',*,*,#421,.F.);
#129=ORIENTED_EDGE('',*,*,#422,.F.);
#130=ORIENTED_EDGE('',*,*,#423,.F.);
#131=ORIENTED_EDGE('',*,*,#424,.T.);
#132=ORIENTED_EDGE('',*,*,#425,.T.);
#133=ORIENTED_EDGE('',*,*,#352,.F.);
#134=ORIENTED_EDGE('',*,*,#355,.T.);
#135=ORIENTED_EDGE('',*,*,#426,.F.);
#136=ORIENTED_EDGE('',*,*,#427,.F.);
#137=ORIENTED_EDGE('',*,*,#423,.T.);
#138=ORIENTED_EDGE('',*,*,#428,.T.);
#139=ORIENTED_EDGE('',*,*,#429,.T.);
#140=ORIENTED_EDGE('',*,*,#354,.T.);
#141=ORIENTED_EDGE('',*,*,#430,.F.);
#142=ORIENTED_EDGE('',*,*,#431,.F.);
#143=ORIENTED_EDGE('',*,*,#426,.T.);
#144=ORIENTED_EDGE('',*,*,#353,.F.);
#145=ORIENTED_EDGE('',*,*,#425,.F.);
#146=ORIENTED_EDGE('',*,*,#432,.T.);
#147=ORIENTED_EDGE('',*,*,#430,.T.);
#148=ORIENTED_EDGE('',*,*,#424,.F.);
#149=ORIENTED_EDGE('',*,*,#427,.T.);
#150=ORIENTED_EDGE('',*,*,#431,.T.);
#151=ORIENTED_EDGE('',*,*,#432,.F.);
#152=ORIENTED_EDGE('',*,*,#433,.F.);
#153=ORIENTED_EDGE('',*,*,#434,.F.);
#154=ORIENTED_EDGE('',*,*,#435,.T.);
#155=ORIENTED_EDGE('',*,*,#378,.F.);
#156=ORIENTED_EDGE('',*,*,#436,.F.);
#157=ORIENTED_EDGE('',*,*,#437,.T.);
#158=ORIENTED_EDGE('',*,*,#438,.T.);
#159=ORIENTED_EDGE('',*,*,#374,.F.);
#160=ORIENTED_EDGE('',*,*,#377,.T.);
#161=ORIENTED_EDGE('',*,*,#439,.F.);
#162=ORIENTED_EDGE('',*,*,#440,.F.);
#163=ORIENTED_EDGE('',*,*,#436,.T.);
#164=ORIENTED_EDGE('',*,*,#376,.T.);
#165=ORIENTED_EDGE('',*,*,#441,.F.);
#166=ORIENTED_EDGE('',*,*,#442,.F.);
#167=ORIENTED_EDGE('',*,*,#439,.T.);
#168=ORIENTED_EDGE('',*,*,#375,.F.);
#169=ORIENTED_EDGE('',*,*,#438,.F.);
#170=ORIENTED_EDGE('',*,*,#443,.T.);
#171=ORIENTED_EDGE('',*,*,#441,.T.);
#172=ORIENTED_EDGE('',*,*,#437,.F.);
#173=ORIENTED_EDGE('',*,*,#440,.T.);
#174=ORIENTED_EDGE('',*,*,#442,.T.);
#175=ORIENTED_EDGE('',*,*,#443,.F.);
#176=ORIENTED_EDGE('',*,*,#444,.F.);
#177=ORIENTED_EDGE('',*,*,#445,.F.);
#178=ORIENTED_EDGE('',*,*,#446,.T.);
#179=ORIENTED_EDGE('',*,*,#447,.T.);
#180=ORIENTED_EDGE('',*,*,#366,.T.);
#181=ORIENTED_EDGE('',*,*,#448,.F.);
#182=ORIENTED_EDGE('',*,*,#449,.F.);
#183=ORIENTED_EDGE('',*,*,#445,.T.);
#184=ORIENTED_EDGE('',*,*,#450,.T.);
#185=ORIENTED_EDGE('',*,*,#451,.T.);
#186=ORIENTED_EDGE('',*,*,#371,.T.);
#187=ORIENTED_EDGE('',*,*,#452,.F.);
#188=ORIENTED_EDGE('',*,*,#453,.F.);
#189=ORIENTED_EDGE('',*,*,#448,.T.);
#190=ORIENTED_EDGE('',*,*,#370,.F.);
#191=ORIENTED_EDGE('',*,*,#454,.F.);
#192=ORIENTED_EDGE('',*,*,#455,.F.);
#193=ORIENTED_EDGE('',*,*,#447,.F.);
#194=ORIENTED_EDGE('',*,*,#456,.T.);
#195=ORIENTED_EDGE('',*,*,#452,.T.);
#196=ORIENTED_EDGE('',*,*,#446,.F.);
#197=ORIENTED_EDGE('',*,*,#449,.T.);
#198=ORIENTED_EDGE('',*,*,#453,.T.);
#199=ORIENTED_EDGE('',*,*,#456,.F.);
#200=ORIENTED_EDGE('',*,*,#380,.T.);
#201=ORIENTED_EDGE('',*,*,#457,.F.);
#202=ORIENTED_EDGE('',*,*,#458,.F.);
#203=ORIENTED_EDGE('',*,*,#459,.T.);
#204=ORIENTED_EDGE('',*,*,#379,.T.);
#205=ORIENTED_EDGE('',*,*,#435,.F.);
#206=ORIENTED_EDGE('',*,*,#460,.F.);
#207=ORIENTED_EDGE('',*,*,#457,.T.);
#208=ORIENTED_EDGE('',*,*,#373,.F.);
#209=ORIENTED_EDGE('',*,*,#461,.F.);
#210=ORIENTED_EDGE('',*,*,#462,.T.);
#211=ORIENTED_EDGE('',*,*,#433,.T.);
#212=ORIENTED_EDGE('',*,*,#372,.F.);
#213=ORIENTED_EDGE('',*,*,#463,.F.);
#214=ORIENTED_EDGE('',*,*,#464,.T.);
#215=ORIENTED_EDGE('',*,*,#461,.T.);
#216=ORIENTED_EDGE('',*,*,#381,.T.);
#217=ORIENTED_EDGE('',*,*,#459,.F.);
#218=ORIENTED_EDGE('',*,*,#465,.F.);
#219=ORIENTED_EDGE('',*,*,#463,.T.);
#220=ORIENTED_EDGE('',*,*,#458,.T.);
#221=ORIENTED_EDGE('',*,*,#460,.T.);
#222=ORIENTED_EDGE('',*,*,#434,.T.);
#223=ORIENTED_EDGE('',*,*,#462,.F.);
#224=ORIENTED_EDGE('',*,*,#464,.F.);
#225=ORIENTED_EDGE('',*,*,#465,.T.);
#226=ORIENTED_EDGE('',*,*,#388,.T.);
#227=ORIENTED_EDGE('',*,*,#466,.F.);
#228=ORIENTED_EDGE('',*,*,#467,.F.);
#229=ORIENTED_EDGE('',*,*,#410,.T.);
#230=ORIENTED_EDGE('',*,*,#387,.F.);
#231=ORIENTED_EDGE('',*,*,#468,.F.);
#232=ORIENTED_EDGE('',*,*,#469,.T.);
#233=ORIENTED_EDGE('',*,*,#466,.T.);
#234=ORIENTED_EDGE('',*,*,#386,.F.);
#235=ORIENTED_EDGE('',*,*,#470,.F.);
#236=ORIENTED_EDGE('',*,*,#471,.T.);
#237=ORIENTED_EDGE('',*,*,#468,.T.);
#238=ORIENTED_EDGE('',*,*,#385,.F.);
#239=ORIENTED_EDGE('',*,*,#472,.F.);
#240=ORIENTED_EDGE('',*,*,#473,.T.);
#241=ORIENTED_EDGE('',*,*,#470,.T.);
#242=ORIENTED_EDGE('',*,*,#384,.F.);
#243=ORIENTED_EDGE('',*,*,#474,.F.);
#244=ORIENTED_EDGE('',*,*,#475,.T.);
#245=ORIENTED_EDGE('',*,*,#472,.T.);
#246=ORIENTED_EDGE('',*,*,#383,.F.);
#247=ORIENTED_EDGE('',*,*,#476,.F.);
#248=ORIENTED_EDGE('',*,*,#477,.T.);
#249=ORIENTED_EDGE('',*,*,#474,.T.);
#250=ORIENTED_EDGE('',*,*,#382,.T.);
#251=ORIENTED_EDGE('',*,*,#412,.F.);
#252=ORIENTED_EDGE('',*,*,#478,.F.);
#253=ORIENTED_EDGE('',*,*,#476,.T.);
#254=ORIENTED_EDGE('',*,*,#411,.T.);
#255=ORIENTED_EDGE('',*,*,#467,.T.);
#256=ORIENTED_EDGE('',*,*,#469,.F.);
#257=ORIENTED_EDGE('',*,*,#471,.F.);
#258=ORIENTED_EDGE('',*,*,#473,.F.);
#259=ORIENTED_EDGE('',*,*,#475,.F.);
#260=ORIENTED_EDGE('',*,*,#477,.F.);
#261=ORIENTED_EDGE('',*,*,#478,.T.);
#262=ORIENTED_EDGE('',*,*,#369,.F.);
#263=ORIENTED_EDGE('',*,*,#479,.F.);
#264=ORIENTED_EDGE('',*,*,#480,.T.);
#265=ORIENTED_EDGE('',*,*,#454,.T.);
#266=ORIENTED_EDGE('',*,*,#368,.F.);
#267=ORIENTED_EDGE('',*,*,#481,.F.);
#268=ORIENTED_EDGE('',*,*,#482,.T.);
#269=ORIENTED_EDGE('',*,*,#479,.T.);
#270=ORIENTED_EDGE('',*,*,#367,.F.);
#271=ORIENTED_EDGE('',*,*,#451,.F.);
#272=ORIENTED_EDGE('',*,*,#483,.T.);
#273=ORIENTED_EDGE('',*,*,#481,.T.);
#274=ORIENTED_EDGE('',*,*,#450,.F.);
#275=ORIENTED_EDGE('',*,*,#444,.T.);
#276=ORIENTED_EDGE('',*,*,#455,.T.);
#277=ORIENTED_EDGE('',*,*,#480,.F.);
#278=ORIENTED_EDGE('',*,*,#482,.F.);
#279=ORIENTED_EDGE('',*,*,#483,.F.);
#280=ORIENTED_EDGE('',*,*,#363,.F.);
#281=ORIENTED_EDGE('',*,*,#484,.F.);
#282=ORIENTED_EDGE('',*,*,#485,.T.);
#283=ORIENTED_EDGE('',*,*,#486,.T.);
#284=ORIENTED_EDGE('',*,*,#362,.F.);
#285=ORIENTED_EDGE('',*,*,#487,.F.);
#286=ORIENTED_EDGE('',*,*,#488,.T.);
#287=ORIENTED_EDGE('',*,*,#484,.T.);
#288=ORIENTED_EDGE('',*,*,#361,.F.);
#289=ORIENTED_EDGE('',*,*,#489,.F.);
#290=ORIENTED_EDGE('',*,*,#490,.T.);
#291=ORIENTED_EDGE('',*,*,#487,.T.);
#292=ORIENTED_EDGE('',*,*,#360,.F.);
#293=ORIENTED_EDGE('',*,*,#491,.F.);
#294=ORIENTED_EDGE('',*,*,#492,.T.);
#295=ORIENTED_EDGE('',*,*,#489,.T.);
#296=ORIENTED_EDGE('',*,*,#359,.T.);
#297=ORIENTED_EDGE('',*,*,#493,.F.);
#298=ORIENTED_EDGE('',*,*,#494,.F.);
#299=ORIENTED_EDGE('',*,*,#491,.T.);
#300=ORIENTED_EDGE('',*,*,#358,.F.);
#301=ORIENTED_EDGE('',*,*,#495,.F.);
#302=ORIENTED_EDGE('',*,*,#496,.T.);
#303=ORIENTED_EDGE('',*,*,#493,.T.);
#304=ORIENTED_EDGE('',*,*,#357,.T.);
#305=ORIENTED_EDGE('',*,*,#497,.F.);
#306=ORIENTED_EDGE('',*,*,#498,.F.);
#307=ORIENTED_EDGE('',*,*,#495,.T.);
#308=ORIENTED_EDGE('',*,*,#356,.F.);
#309=ORIENTED_EDGE('',*,*,#429,.F.);
#310=ORIENTED_EDGE('',*,*,#499,.T.);
#311=ORIENTED_EDGE('',*,*,#497,.T.);
#312=ORIENTED_EDGE('',*,*,#351,.F.);
#313=ORIENTED_EDGE('',*,*,#500,.F.);
#314=ORIENTED_EDGE('',*,*,#501,.T.);
#315=ORIENTED_EDGE('',*,*,#421,.T.);
#316=ORIENTED_EDGE('',*,*,#350,.T.);
#317=ORIENTED_EDGE('',*,*,#502,.F.);
#318=ORIENTED_EDGE('',*,*,#503,.F.);
#319=ORIENTED_EDGE('',*,*,#500,.T.);
#320=ORIENTED_EDGE('',*,*,#365,.T.);
#321=ORIENTED_EDGE('',*,*,#504,.F.);
#322=ORIENTED_EDGE('',*,*,#505,.F.);
#323=ORIENTED_EDGE('',*,*,#502,.T.);
#324=ORIENTED_EDGE('',*,*,#364,.F.);
#325=ORIENTED_EDGE('',*,*,#486,.F.);
#326=ORIENTED_EDGE('',*,*,#506,.T.);
#327=ORIENTED_EDGE('',*,*,#504,.T.);
#328=ORIENTED_EDGE('',*,*,#485,.F.);
#329=ORIENTED_EDGE('',*,*,#488,.F.);
#330=ORIENTED_EDGE('',*,*,#490,.F.);
#331=ORIENTED_EDGE('',*,*,#492,.F.);
#332=ORIENTED_EDGE('',*,*,#494,.T.);
#333=ORIENTED_EDGE('',*,*,#496,.F.);
#334=ORIENTED_EDGE('',*,*,#498,.T.);
#335=ORIENTED_EDGE('',*,*,#499,.F.);
#336=ORIENTED_EDGE('',*,*,#428,.F.);
#337=ORIENTED_EDGE('',*,*,#422,.T.);
#338=ORIENTED_EDGE('',*,*,#501,.F.);
#339=ORIENTED_EDGE('',*,*,#503,.T.);
#340=ORIENTED_EDGE('',*,*,#505,.T.);
#341=ORIENTED_EDGE('',*,*,#506,.F.);
#342=EDGE_CURVE('',#507,#508,#617,.T.);
#343=EDGE_CURVE('',#508,#509,#618,.T.);
#344=EDGE_CURVE('',#510,#509,#619,.T.);
#345=EDGE_CURVE('',#507,#510,#620,.T.);
#346=EDGE_CURVE('',#511,#512,#621,.T.);
#347=EDGE_CURVE('',#511,#513,#622,.T.);
#348=EDGE_CURVE('',#513,#514,#623,.T.);
#349=EDGE_CURVE('',#512,#514,#624,.T.);
#350=EDGE_CURVE('',#515,#516,#625,.T.);
#351=EDGE_CURVE('',#515,#517,#626,.T.);
#352=EDGE_CURVE('',#517,#518,#627,.T.);
#353=EDGE_CURVE('',#518,#519,#628,.T.);
#354=EDGE_CURVE('',#520,#519,#629,.T.);
#355=EDGE_CURVE('',#521,#520,#630,.T.);
#356=EDGE_CURVE('',#521,#522,#631,.T.);
#357=EDGE_CURVE('',#523,#522,#632,.T.);
#358=EDGE_CURVE('',#523,#524,#633,.T.);
#359=EDGE_CURVE('',#525,#524,#634,.T.);
#360=EDGE_CURVE('',#525,#526,#635,.T.);
#361=EDGE_CURVE('',#526,#527,#636,.T.);
#362=EDGE_CURVE('',#527,#528,#637,.T.);
#363=EDGE_CURVE('',#528,#529,#638,.T.);
#364=EDGE_CURVE('',#529,#530,#639,.T.);
#365=EDGE_CURVE('',#516,#530,#640,.T.);
#366=EDGE_CURVE('',#531,#532,#641,.T.);
#367=EDGE_CURVE('',#531,#533,#642,.T.);
#368=EDGE_CURVE('',#533,#534,#643,.T.);
#369=EDGE_CURVE('',#534,#535,#644,.T.);
#370=EDGE_CURVE('',#535,#536,#645,.T.);
#371=EDGE_CURVE('',#532,#536,#646,.T.);
#372=EDGE_CURVE('',#537,#538,#647,.T.);
#373=EDGE_CURVE('',#538,#539,#648,.T.);
#374=EDGE_CURVE('',#539,#540,#649,.T.);
#375=EDGE_CURVE('',#540,#541,#650,.T.);
#376=EDGE_CURVE('',#542,#541,#651,.T.);
#377=EDGE_CURVE('',#543,#542,#652,.T.);
#378=EDGE_CURVE('',#543,#544,#653,.T.);
#379=EDGE_CURVE('',#545,#544,#654,.T.);
#380=EDGE_CURVE('',#546,#545,#655,.T.);
#381=EDGE_CURVE('',#537,#546,#656,.T.);
#382=EDGE_CURVE('',#547,#548,#657,.T.);
#383=EDGE_CURVE('',#547,#549,#658,.T.);
#384=EDGE_CURVE('',#549,#550,#659,.T.);
#385=EDGE_CURVE('',#550,#551,#660,.T.);
#386=EDGE_CURVE('',#551,#552,#661,.T.);
#387=EDGE_CURVE('',#552,#553,#662,.T.);
#388=EDGE_CURVE('',#554,#553,#663,.T.);
#389=EDGE_CURVE('',#554,#555,#664,.T.);
#390=EDGE_CURVE('',#555,#556,#665,.T.);
#391=EDGE_CURVE('',#557,#556,#666,.T.);
#392=EDGE_CURVE('',#558,#557,#667,.T.);
#393=EDGE_CURVE('',#558,#548,#668,.T.);
#394=EDGE_CURVE('',#559,#507,#669,.T.);
#395=EDGE_CURVE('',#559,#560,#670,.T.);
#396=EDGE_CURVE('',#560,#508,#671,.T.);
#397=EDGE_CURVE('',#561,#510,#672,.T.);
#398=EDGE_CURVE('',#559,#561,#673,.T.);
#399=EDGE_CURVE('',#562,#509,#674,.T.);
#400=EDGE_CURVE('',#561,#562,#675,.T.);
#401=EDGE_CURVE('',#560,#562,#676,.T.);
#402=EDGE_CURVE('',#563,#564,#677,.T.);
#403=EDGE_CURVE('',#563,#565,#678,.T.);
#404=EDGE_CURVE('',#565,#566,#679,.T.);
#405=EDGE_CURVE('',#564,#566,#680,.T.);
#406=EDGE_CURVE('',#511,#563,#681,.T.);
#407=EDGE_CURVE('',#513,#564,#682,.T.);
#408=EDGE_CURVE('',#514,#566,#683,.T.);
#409=EDGE_CURVE('',#512,#565,#684,.T.);
#410=EDGE_CURVE('',#567,#554,#685,.T.);
#411=EDGE_CURVE('',#568,#567,#686,.T.);
#412=EDGE_CURVE('',#568,#548,#687,.T.);
#413=EDGE_CURVE('',#569,#558,#688,.T.);
#414=EDGE_CURVE('',#569,#570,#689,.T.);
#415=EDGE_CURVE('',#570,#555,#690,.T.);
#416=EDGE_CURVE('',#571,#557,#691,.T.);
#417=EDGE_CURVE('',#569,#571,#692,.T.);
#418=EDGE_CURVE('',#572,#556,#693,.T.);
#419=EDGE_CURVE('',#571,#572,#694,.T.);
#420=EDGE_CURVE('',#570,#572,#695,.T.);
#421=EDGE_CURVE('',#573,#517,#696,.T.);
#422=EDGE_CURVE('',#574,#573,#697,.T.);
#423=EDGE_CURVE('',#575,#574,#698,.T.);
#424=EDGE_CURVE('',#575,#576,#699,.T.);
#425=EDGE_CURVE('',#576,#518,#700,.T.);
#426=EDGE_CURVE('',#577,#520,#701,.T.);
#427=EDGE_CURVE('',#575,#577,#702,.T.);
#428=EDGE_CURVE('',#574,#578,#703,.T.);
#429=EDGE_CURVE('',#578,#521,#704,.T.);
#430=EDGE_CURVE('',#579,#519,#705,.T.);
#431=EDGE_CURVE('',#577,#579,#706,.T.);
#432=EDGE_CURVE('',#576,#579,#707,.T.);
#433=EDGE_CURVE('',#580,#539,#708,.T.);
#434=EDGE_CURVE('',#581,#580,#709,.T.);
#435=EDGE_CURVE('',#581,#544,#710,.T.);
#436=EDGE_CURVE('',#582,#543,#711,.T.);
#437=EDGE_CURVE('',#582,#583,#712,.T.);
#438=EDGE_CURVE('',#583,#540,#713,.T.);
#439=EDGE_CURVE('',#584,#542,#714,.T.);
#440=EDGE_CURVE('',#582,#584,#715,.T.);
#441=EDGE_CURVE('',#585,#541,#716,.T.);
#442=EDGE_CURVE('',#584,#585,#717,.T.);
#443=EDGE_CURVE('',#583,#585,#718,.T.);
#444=EDGE_CURVE('',#586,#587,#719,.T.);
#445=EDGE_CURVE('',#588,#586,#720,.T.);
#446=EDGE_CURVE('',#588,#589,#721,.T.);
#447=EDGE_CURVE('',#589,#587,#722,.T.);
#448=EDGE_CURVE('',#590,#532,#723,.T.);
#449=EDGE_CURVE('',#588,#590,#724,.T.);
#450=EDGE_CURVE('',#586,#591,#725,.T.);
#451=EDGE_CURVE('',#591,#531,#726,.T.);
#452=EDGE_CURVE('',#592,#536,#727,.T.);
#453=EDGE_CURVE('',#590,#592,#728,.T.);
#454=EDGE_CURVE('',#593,#535,#729,.T.);
#455=EDGE_CURVE('',#587,#593,#730,.T.);
#456=EDGE_CURVE('',#589,#592,#731,.T.);
#457=EDGE_CURVE('',#594,#545,#732,.T.);
#458=EDGE_CURVE('',#595,#594,#733,.T.);
#459=EDGE_CURVE('',#595,#546,#734,.T.);
#460=EDGE_CURVE('',#594,#581,#735,.T.);
#461=EDGE_CURVE('',#596,#538,#736,.T.);
#462=EDGE_CURVE('',#596,#580,#737,.T.);
#463=EDGE_CURVE('',#597,#537,#738,.T.);
#464=EDGE_CURVE('',#597,#596,#739,.T.);
#465=EDGE_CURVE('',#597,#595,#740,.T.);
#466=EDGE_CURVE('',#598,#553,#741,.T.);
#467=EDGE_CURVE('',#567,#598,#742,.T.);
#468=EDGE_CURVE('',#599,#552,#743,.T.);
#469=EDGE_CURVE('',#599,#598,#744,.T.);
#470=EDGE_CURVE('',#600,#551,#745,.T.);
#471=EDGE_CURVE('',#600,#599,#746,.T.);
#472=EDGE_CURVE('',#601,#550,#747,.T.);
#473=EDGE_CURVE('',#601,#600,#748,.T.);
#474=EDGE_CURVE('',#602,#549,#749,.T.);
#475=EDGE_CURVE('',#602,#601,#750,.T.);
#476=EDGE_CURVE('',#603,#547,#751,.T.);
#477=EDGE_CURVE('',#603,#602,#752,.T.);
#478=EDGE_CURVE('',#603,#568,#753,.T.);
#479=EDGE_CURVE('',#604,#534,#754,.T.);
#480=EDGE_CURVE('',#604,#593,#755,.T.);
#481=EDGE_CURVE('',#605,#533,#756,.T.);
#482=EDGE_CURVE('',#605,#604,#757,.T.);
#483=EDGE_CURVE('',#591,#605,#758,.T.);
#484=EDGE_CURVE('',#606,#528,#759,.T.);
#485=EDGE_CURVE('',#606,#607,#760,.T.);
#486=EDGE_CURVE('',#607,#529,#761,.T.);
#487=EDGE_CURVE('',#608,#527,#762,.T.);
#488=EDGE_CURVE('',#608,#606,#763,.T.);
#489=EDGE_CURVE('',#609,#526,#764,.T.);
#490=EDGE_CURVE('',#609,#608,#765,.T.);
#491=EDGE_CURVE('',#610,#525,#766,.T.);
#492=EDGE_CURVE('',#610,#609,#767,.T.);
#493=EDGE_CURVE('',#611,#524,#768,.T.);
#494=EDGE_CURVE('',#610,#611,#769,.T.);
#495=EDGE_CURVE('',#612,#523,#770,.T.);
#496=EDGE_CURVE('',#612,#611,#771,.T.);
#497=EDGE_CURVE('',#613,#522,#772,.T.);
#498=EDGE_CURVE('',#612,#613,#773,.T.);
#499=EDGE_CURVE('',#578,#613,#774,.T.);
#500=EDGE_CURVE('',#614,#515,#775,.T.);
#501=EDGE_CURVE('',#614,#573,#776,.T.);
#502=EDGE_CURVE('',#615,#516,#777,.T.);
#503=EDGE_CURVE('',#614,#615,#778,.T.);
#504=EDGE_CURVE('',#616,#530,#779,.T.);
#505=EDGE_CURVE('',#615,#616,#780,.T.);
#506=EDGE_CURVE('',#607,#616,#781,.T.);
#507=VERTEX_POINT('',#1569);
#508=VERTEX_POINT('',#1570);
#509=VERTEX_POINT('',#1572);
#510=VERTEX_POINT('',#1574);
#511=VERTEX_POINT('',#1577);
#512=VERTEX_POINT('',#1578);
#513=VERTEX_POINT('',#1580);
#514=VERTEX_POINT('',#1582);
#515=VERTEX_POINT('',#1585);
#516=VERTEX_POINT('',#1586);
#517=VERTEX_POINT('',#1588);
#518=VERTEX_POINT('',#1590);
#519=VERTEX_POINT('',#1592);
#520=VERTEX_POINT('',#1594);
#521=VERTEX_POINT('',#1596);
#522=VERTEX_POINT('',#1598);
#523=VERTEX_POINT('',#1600);
#524=VERTEX_POINT('',#1602);
#525=VERTEX_POINT('',#1604);
#526=VERTEX_POINT('',#1606);
#527=VERTEX_POINT('',#1608);
#528=VERTEX_POINT('',#1610);
#529=VERTEX_POINT('',#1612);
#530=VERTEX_POINT('',#1614);
#531=VERTEX_POINT('',#1617);
#532=VERTEX_POINT('',#1618);
#533=VERTEX_POINT('',#1620);
#534=VERTEX_POINT('',#1622);
#535=VERTEX_POINT('',#1624);
#536=VERTEX_POINT('',#1626);
#537=VERTEX_POINT('',#1629);
#538=VERTEX_POINT('',#1630);
#539=VERTEX_POINT('',#1632);
#540=VERTEX_POINT('',#1634);
#541=VERTEX_POINT('',#1636);
#542=VERTEX_POINT('',#1638);
#543=VERTEX_POINT('',#1640);
#544=VERTEX_POINT('',#1642);
#545=VERTEX_POINT('',#1644);
#546=VERTEX_POINT('',#1646);
#547=VERTEX_POINT('',#1649);
#548=VERTEX_POINT('',#1650);
#549=VERTEX_POINT('',#1652);
#550=VERTEX_POINT('',#1654);
#551=VERTEX_POINT('',#1656);
#552=VERTEX_POINT('',#1658);
#553=VERTEX_POINT('',#1660);
#554=VERTEX_POINT('',#1662);
#555=VERTEX_POINT('',#1664);
#556=VERTEX_POINT('',#1666);
#557=VERTEX_POINT('',#1668);
#558=VERTEX_POINT('',#1670);
#559=VERTEX_POINT('',#1674);
#560=VERTEX_POINT('',#1676);
#561=VERTEX_POINT('',#1680);
#562=VERTEX_POINT('',#1684);
#563=VERTEX_POINT('',#1690);
#564=VERTEX_POINT('',#1691);
#565=VERTEX_POINT('',#1693);
#566=VERTEX_POINT('',#1695);
#567=VERTEX_POINT('',#1707);
#568=VERTEX_POINT('',#1709);
#569=VERTEX_POINT('',#1712);
#570=VERTEX_POINT('',#1714);
#571=VERTEX_POINT('',#1718);
#572=VERTEX_POINT('',#1722);
#573=VERTEX_POINT('',#1729);
#574=VERTEX_POINT('',#1731);
#575=VERTEX_POINT('',#1733);
#576=VERTEX_POINT('',#1735);
#577=VERTEX_POINT('',#1739);
#578=VERTEX_POINT('',#1742);
#579=VERTEX_POINT('',#1746);
#580=VERTEX_POINT('',#1753);
#581=VERTEX_POINT('',#1755);
#582=VERTEX_POINT('',#1758);
#583=VERTEX_POINT('',#1760);
#584=VERTEX_POINT('',#1764);
#585=VERTEX_POINT('',#1768);
#586=VERTEX_POINT('',#1775);
#587=VERTEX_POINT('',#1776);
#588=VERTEX_POINT('',#1778);
#589=VERTEX_POINT('',#1780);
#590=VERTEX_POINT('',#1784);
#591=VERTEX_POINT('',#1787);
#592=VERTEX_POINT('',#1791);
#593=VERTEX_POINT('',#1795);
#594=VERTEX_POINT('',#1801);
#595=VERTEX_POINT('',#1803);
#596=VERTEX_POINT('',#1809);
#597=VERTEX_POINT('',#1813);
#598=VERTEX_POINT('',#1820);
#599=VERTEX_POINT('',#1824);
#600=VERTEX_POINT('',#1828);
#601=VERTEX_POINT('',#1832);
#602=VERTEX_POINT('',#1836);
#603=VERTEX_POINT('',#1840);
#604=VERTEX_POINT('',#1847);
#605=VERTEX_POINT('',#1851);
#606=VERTEX_POINT('',#1858);
#607=VERTEX_POINT('',#1860);
#608=VERTEX_POINT('',#1864);
#609=VERTEX_POINT('',#1868);
#610=VERTEX_POINT('',#1872);
#611=VERTEX_POINT('',#1876);
#612=VERTEX_POINT('',#1880);
#613=VERTEX_POINT('',#1884);
#614=VERTEX_POINT('',#1890);
#615=VERTEX_POINT('',#1894);
#616=VERTEX_POINT('',#1898);
#617=LINE('',#1568,#782);
#618=LINE('',#1571,#783);
#619=LINE('',#1573,#784);
#620=LINE('',#1575,#785);
#621=LINE('',#1576,#786);
#622=LINE('',#1579,#787);
#623=LINE('',#1581,#788);
#624=LINE('',#1583,#789);
#625=LINE('',#1584,#790);
#626=LINE('',#1587,#791);
#627=LINE('',#1589,#792);
#628=LINE('',#1591,#793);
#629=LINE('',#1593,#794);
#630=LINE('',#1595,#795);
#631=LINE('',#1597,#796);
#632=LINE('',#1599,#797);
#633=LINE('',#1601,#798);
#634=LINE('',#1603,#799);
#635=LINE('',#1605,#800);
#636=LINE('',#1607,#801);
#637=LINE('',#1609,#802);
#638=LINE('',#1611,#803);
#639=LINE('',#1613,#804);
#640=LINE('',#1615,#805);
#641=LINE('',#1616,#806);
#642=LINE('',#1619,#807);
#643=LINE('',#1621,#808);
#644=LINE('',#1623,#809);
#645=LINE('',#1625,#810);
#646=LINE('',#1627,#811);
#647=LINE('',#1628,#812);
#648=LINE('',#1631,#813);
#649=LINE('',#1633,#814);
#650=LINE('',#1635,#815);
#651=LINE('',#1637,#816);
#652=LINE('',#1639,#817);
#653=LINE('',#1641,#818);
#654=LINE('',#1643,#819);
#655=LINE('',#1645,#820);
#656=LINE('',#1647,#821);
#657=LINE('',#1648,#822);
#658=LINE('',#1651,#823);
#659=LINE('',#1653,#824);
#660=LINE('',#1655,#825);
#661=LINE('',#1657,#826);
#662=LINE('',#1659,#827);
#663=LINE('',#1661,#828);
#664=LINE('',#1663,#829);
#665=LINE('',#1665,#830);
#666=LINE('',#1667,#831);
#667=LINE('',#1669,#832);
#668=LINE('',#1671,#833);
#669=LINE('',#1673,#834);
#670=LINE('',#1675,#835);
#671=LINE('',#1677,#836);
#672=LINE('',#1679,#837);
#673=LINE('',#1681,#838);
#674=LINE('',#1683,#839);
#675=LINE('',#1685,#840);
#676=LINE('',#1687,#841);
#677=LINE('',#1689,#842);
#678=LINE('',#1692,#843);
#679=LINE('',#1694,#844);
#680=LINE('',#1696,#845);
#681=LINE('',#1698,#846);
#682=LINE('',#1699,#847);
#683=LINE('',#1701,#848);
#684=LINE('',#1703,#849);
#685=LINE('',#1706,#850);
#686=LINE('',#1708,#851);
#687=LINE('',#1710,#852);
#688=LINE('',#1711,#853);
#689=LINE('',#1713,#854);
#690=LINE('',#1715,#855);
#691=LINE('',#1717,#856);
#692=LINE('',#1719,#857);
#693=LINE('',#1721,#858);
#694=LINE('',#1723,#859);
#695=LINE('',#1725,#860);
#696=LINE('',#1728,#861);
#697=LINE('',#1730,#862);
#698=LINE('',#1732,#863);
#699=LINE('',#1734,#864);
#700=LINE('',#1736,#865);
#701=LINE('',#1738,#866);
#702=LINE('',#1740,#867);
#703=LINE('',#1741,#868);
#704=LINE('',#1743,#869);
#705=LINE('',#1745,#870);
#706=LINE('',#1747,#871);
#707=LINE('',#1749,#872);
#708=LINE('',#1752,#873);
#709=LINE('',#1754,#874);
#710=LINE('',#1756,#875);
#711=LINE('',#1757,#876);
#712=LINE('',#1759,#877);
#713=LINE('',#1761,#878);
#714=LINE('',#1763,#879);
#715=LINE('',#1765,#880);
#716=LINE('',#1767,#881);
#717=LINE('',#1769,#882);
#718=LINE('',#1771,#883);
#719=LINE('',#1774,#884);
#720=LINE('',#1777,#885);
#721=LINE('',#1779,#886);
#722=LINE('',#1781,#887);
#723=LINE('',#1783,#888);
#724=LINE('',#1785,#889);
#725=LINE('',#1786,#890);
#726=LINE('',#1788,#891);
#727=LINE('',#1790,#892);
#728=LINE('',#1792,#893);
#729=LINE('',#1794,#894);
#730=LINE('',#1796,#895);
#731=LINE('',#1797,#896);
#732=LINE('',#1800,#897);
#733=LINE('',#1802,#898);
#734=LINE('',#1804,#899);
#735=LINE('',#1806,#900);
#736=LINE('',#1808,#901);
#737=LINE('',#1810,#902);
#738=LINE('',#1812,#903);
#739=LINE('',#1814,#904);
#740=LINE('',#1816,#905);
#741=LINE('',#1819,#906);
#742=LINE('',#1821,#907);
#743=LINE('',#1823,#908);
#744=LINE('',#1825,#909);
#745=LINE('',#1827,#910);
#746=LINE('',#1829,#911);
#747=LINE('',#1831,#912);
#748=LINE('',#1833,#913);
#749=LINE('',#1835,#914);
#750=LINE('',#1837,#915);
#751=LINE('',#1839,#916);
#752=LINE('',#1841,#917);
#753=LINE('',#1843,#918);
#754=LINE('',#1846,#919);
#755=LINE('',#1848,#920);
#756=LINE('',#1850,#921);
#757=LINE('',#1852,#922);
#758=LINE('',#1854,#923);
#759=LINE('',#1857,#924);
#760=LINE('',#1859,#925);
#761=LINE('',#1861,#926);
#762=LINE('',#1863,#927);
#763=LINE('',#1865,#928);
#764=LINE('',#1867,#929);
#765=LINE('',#1869,#930);
#766=LINE('',#1871,#931);
#767=LINE('',#1873,#932);
#768=LINE('',#1875,#933);
#769=LINE('',#1877,#934);
#770=LINE('',#1879,#935);
#771=LINE('',#1881,#936);
#772=LINE('',#1883,#937);
#773=LINE('',#1885,#938);
#774=LINE('',#1887,#939);
#775=LINE('',#1889,#940);
#776=LINE('',#1891,#941);
#777=LINE('',#1893,#942);
#778=LINE('',#1895,#943);
#779=LINE('',#1897,#944);
#780=LINE('',#1899,#945);
#781=LINE('',#1901,#946);
#782=VECTOR('',#1281,1.);
#783=VECTOR('',#1282,1.);
#784=VECTOR('',#1283,1.);
#785=VECTOR('',#1284,1.);
#786=VECTOR('',#1285,1.);
#787=VECTOR('',#1286,1.);
#788=VECTOR('',#1287,1.);
#789=VECTOR('',#1288,1.);
#790=VECTOR('',#1289,1.);
#791=VECTOR('',#1290,1.);
#792=VECTOR('',#1291,1.);
#793=VECTOR('',#1292,1.);
#794=VECTOR('',#1293,1.);
#795=VECTOR('',#1294,1.);
#796=VECTOR('',#1295,1.);
#797=VECTOR('',#1296,1.);
#798=VECTOR('',#1297,1.);
#799=VECTOR('',#1298,1.);
#800=VECTOR('',#1299,1.);
#801=VECTOR('',#1300,1.);
#802=VECTOR('',#1301,1.);
#803=VECTOR('',#1302,1.);
#804=VECTOR('',#1303,1.);
#805=VECTOR('',#1304,1.);
#806=VECTOR('',#1305,1.);
#807=VECTOR('',#1306,1.);
#808=VECTOR('',#1307,1.);
#809=VECTOR('',#1308,1.);
#810=VECTOR('',#1309,1.);
#811=VECTOR('',#1310,1.);
#812=VECTOR('',#1311,1.);
#813=VECTOR('',#1312,1.);
#814=VECTOR('',#1313,1.);
#815=VECTOR('',#1314,1.);
#816=VECTOR('',#1315,1.);
#817=VECTOR('',#1316,1.);
#818=VECTOR('',#1317,1.);
#819=VECTOR('',#1318,1.);
#820=VECTOR('',#1319,1.);
#821=VECTOR('',#1320,1.);
#822=VECTOR('',#1321,1.);
#823=VECTOR('',#1322,1.);
#824=VECTOR('',#1323,1.);
#825=VECTOR('',#1324,1.);
#826=VECTOR('',#1325,1.);
#827=VECTOR('',#1326,1.);
#828=VECTOR('',#1327,1.);
#829=VECTOR('',#1328,1.);
#830=VECTOR('',#1329,1.);
#831=VECTOR('',#1330,1.);
#832=VECTOR('',#1331,1.);
#833=VECTOR('',#1332,1.);
#834=VECTOR('',#1335,1.);
#835=VECTOR('',#1336,1.);
#836=VECTOR('',#1337,1.);
#837=VECTOR('',#1340,1.);
#838=VECTOR('',#1341,1.);
#839=VECTOR('',#1344,1.);
#840=VECTOR('',#1345,1.);
#841=VECTOR('',#1348,1.);
#842=VECTOR('',#1351,1.);
#843=VECTOR('',#1352,1.);
#844=VECTOR('',#1353,1.);
#845=VECTOR('',#1354,1.);
#846=VECTOR('',#1357,1.);
#847=VECTOR('',#1358,1.);
#848=VECTOR('',#1361,1.);
#849=VECTOR('',#1364,1.);
#850=VECTOR('',#1369,1.);
#851=VECTOR('',#1370,1.);
#852=VECTOR('',#1371,1.);
#853=VECTOR('',#1372,1.);
#854=VECTOR('',#1373,1.);
#855=VECTOR('',#1374,1.);
#856=VECTOR('',#1377,1.);
#857=VECTOR('',#1378,1.);
#858=VECTOR('',#1381,1.);
#859=VECTOR('',#1382,1.);
#860=VECTOR('',#1385,1.);
#861=VECTOR('',#1390,1.);
#862=VECTOR('',#1391,1.);
#863=VECTOR('',#1392,1.);
#864=VECTOR('',#1393,1.);
#865=VECTOR('',#1394,1.);
#866=VECTOR('',#1397,1.);
#867=VECTOR('',#1398,1.);
#868=VECTOR('',#1399,1.);
#869=VECTOR('',#1400,1.);
#870=VECTOR('',#1403,1.);
#871=VECTOR('',#1404,1.);
#872=VECTOR('',#1407,1.);
#873=VECTOR('',#1412,1.);
#874=VECTOR('',#1413,1.);
#875=VECTOR('',#1414,1.);
#876=VECTOR('',#1415,1.);
#877=VECTOR('',#1416,1.);
#878=VECTOR('',#1417,1.);
#879=VECTOR('',#1420,1.);
#880=VECTOR('',#1421,1.);
#881=VECTOR('',#1424,1.);
#882=VECTOR('',#1425,1.);
#883=VECTOR('',#1428,1.);
#884=VECTOR('',#1433,1.);
#885=VECTOR('',#1434,1.);
#886=VECTOR('',#1435,1.);
#887=VECTOR('',#1436,1.);
#888=VECTOR('',#1439,1.);
#889=VECTOR('',#1440,1.);
#890=VECTOR('',#1441,1.);
#891=VECTOR('',#1442,1.);
#892=VECTOR('',#1445,1.);
#893=VECTOR('',#1446,1.);
#894=VECTOR('',#1449,1.);
#895=VECTOR('',#1450,1.);
#896=VECTOR('',#1451,1.);
#897=VECTOR('',#1456,1.);
#898=VECTOR('',#1457,1.);
#899=VECTOR('',#1458,1.);
#900=VECTOR('',#1461,1.);
#901=VECTOR('',#1464,1.);
#902=VECTOR('',#1465,1.);
#903=VECTOR('',#1468,1.);
#904=VECTOR('',#1469,1.);
#905=VECTOR('',#1472,1.);
#906=VECTOR('',#1477,1.);
#907=VECTOR('',#1478,1.);
#908=VECTOR('',#1481,1.);
#909=VECTOR('',#1482,1.);
#910=VECTOR('',#1485,1.);
#911=VECTOR('',#1486,1.);
#912=VECTOR('',#1489,1.);
#913=VECTOR('',#1490,1.);
#914=VECTOR('',#1493,1.);
#915=VECTOR('',#1494,1.);
#916=VECTOR('',#1497,1.);
#917=VECTOR('',#1498,1.);
#918=VECTOR('',#1501,1.);
#919=VECTOR('',#1506,1.);
#920=VECTOR('',#1507,1.);
#921=VECTOR('',#1510,1.);
#922=VECTOR('',#1511,1.);
#923=VECTOR('',#1514,1.);
#924=VECTOR('',#1519,1.);
#925=VECTOR('',#1520,1.);
#926=VECTOR('',#1521,1.);
#927=VECTOR('',#1524,1.);
#928=VECTOR('',#1525,1.);
#929=VECTOR('',#1528,1.);
#930=VECTOR('',#1529,1.);
#931=VECTOR('',#1532,1.);
#932=VECTOR('',#1533,1.);
#933=VECTOR('',#1536,1.);
#934=VECTOR('',#1537,1.);
#935=VECTOR('',#1540,1.);
#936=VECTOR('',#1541,1.);
#937=VECTOR('',#1544,1.);
#938=VECTOR('',#1545,1.);
#939=VECTOR('',#1548,1.);
#940=VECTOR('',#1551,1.);
#941=VECTOR('',#1552,1.);
#942=VECTOR('',#1555,1.);
#943=VECTOR('',#1556,1.);
#944=VECTOR('',#1559,1.);
#945=VECTOR('',#1560,1.);
#946=VECTOR('',#1563,1.);
#947=EDGE_LOOP('',(#12,#13,#14,#15));
#948=EDGE_LOOP('',(#16,#17,#18,#19));
#949=EDGE_LOOP('',(#20,#21,#22,#23,#24,#25,#26,#27,#28,#29,#30,#31,#32,
#33,#34,#35));
#950=EDGE_LOOP('',(#36,#37,#38,#39,#40,#41));
#951=EDGE_LOOP('',(#42,#43,#44,#45,#46,#47,#48,#49,#50,#51));
#952=EDGE_LOOP('',(#52,#53,#54,#55,#56,#57,#58,#59,#60,#61,#62,#63));
#953=EDGE_LOOP('',(#64,#65,#66,#67));
#954=EDGE_LOOP('',(#68,#69,#70,#71));
#955=EDGE_LOOP('',(#72,#73,#74,#75));
#956=EDGE_LOOP('',(#76,#77,#78,#79));
#957=EDGE_LOOP('',(#80,#81,#82,#83));
#958=EDGE_LOOP('',(#84,#85,#86,#87));
#959=EDGE_LOOP('',(#88,#89,#90,#91));
#960=EDGE_LOOP('',(#92,#93,#94,#95));
#961=EDGE_LOOP('',(#96,#97,#98,#99));
#962=EDGE_LOOP('',(#100,#101,#102,#103));
#963=EDGE_LOOP('',(#104,#105,#106,#107,#108,#109,#110,#111));
#964=EDGE_LOOP('',(#112,#113,#114,#115));
#965=EDGE_LOOP('',(#116,#117,#118,#119));
#966=EDGE_LOOP('',(#120,#121,#122,#123));
#967=EDGE_LOOP('',(#124,#125,#126,#127));
#968=EDGE_LOOP('',(#128,#129,#130,#131,#132,#133));
#969=EDGE_LOOP('',(#134,#135,#136,#137,#138,#139));
#970=EDGE_LOOP('',(#140,#141,#142,#143));
#971=EDGE_LOOP('',(#144,#145,#146,#147));
#972=EDGE_LOOP('',(#148,#149,#150,#151));
#973=EDGE_LOOP('',(#152,#153,#154,#155,#156,#157,#158,#159));
#974=EDGE_LOOP('',(#160,#161,#162,#163));
#975=EDGE_LOOP('',(#164,#165,#166,#167));
#976=EDGE_LOOP('',(#168,#169,#170,#171));
#977=EDGE_LOOP('',(#172,#173,#174,#175));
#978=EDGE_LOOP('',(#176,#177,#178,#179));
#979=EDGE_LOOP('',(#180,#181,#182,#183,#184,#185));
#980=EDGE_LOOP('',(#186,#187,#188,#189));
#981=EDGE_LOOP('',(#190,#191,#192,#193,#194,#195));
#982=EDGE_LOOP('',(#196,#197,#198,#199));
#983=EDGE_LOOP('',(#200,#201,#202,#203));
#984=EDGE_LOOP('',(#204,#205,#206,#207));
#985=EDGE_LOOP('',(#208,#209,#210,#211));
#986=EDGE_LOOP('',(#212,#213,#214,#215));
#987=EDGE_LOOP('',(#216,#217,#218,#219));
#988=EDGE_LOOP('',(#220,#221,#222,#223,#224,#225));
#989=EDGE_LOOP('',(#226,#227,#228,#229));
#990=EDGE_LOOP('',(#230,#231,#232,#233));
#991=EDGE_LOOP('',(#234,#235,#236,#237));
#992=EDGE_LOOP('',(#238,#239,#240,#241));
#993=EDGE_LOOP('',(#242,#243,#244,#245));
#994=EDGE_LOOP('',(#246,#247,#248,#249));
#995=EDGE_LOOP('',(#250,#251,#252,#253));
#996=EDGE_LOOP('',(#254,#255,#256,#257,#258,#259,#260,#261));
#997=EDGE_LOOP('',(#262,#263,#264,#265));
#998=EDGE_LOOP('',(#266,#267,#268,#269));
#999=EDGE_LOOP('',(#270,#271,#272,#273));
#1000=EDGE_LOOP('',(#274,#275,#276,#277,#278,#279));
#1001=EDGE_LOOP('',(#280,#281,#282,#283));
#1002=EDGE_LOOP('',(#284,#285,#286,#287));
#1003=EDGE_LOOP('',(#288,#289,#290,#291));
#1004=EDGE_LOOP('',(#292,#293,#294,#295));
#1005=EDGE_LOOP('',(#296,#297,#298,#299));
#1006=EDGE_LOOP('',(#300,#301,#302,#303));
#1007=EDGE_LOOP('',(#304,#305,#306,#307));
#1008=EDGE_LOOP('',(#308,#309,#310,#311));
#1009=EDGE_LOOP('',(#312,#313,#314,#315));
#1010=EDGE_LOOP('',(#316,#317,#318,#319));
#1011=EDGE_LOOP('',(#320,#321,#322,#323));
#1012=EDGE_LOOP('',(#324,#325,#326,#327));
#1013=EDGE_LOOP('',(#328,#329,#330,#331,#332,#333,#334,#335,#336,#337,#338,
#339,#340,#341));
#1014=FACE_BOUND('',#947,.T.);
#1015=FACE_BOUND('',#948,.T.);
#1016=FACE_BOUND('',#949,.T.);
#1017=FACE_BOUND('',#950,.T.);
#1018=FACE_BOUND('',#951,.T.);
#1019=FACE_BOUND('',#952,.T.);
#1020=FACE_BOUND('',#953,.T.);
#1021=FACE_BOUND('',#954,.T.);
#1022=FACE_BOUND('',#955,.T.);
#1023=FACE_BOUND('',#956,.T.);
#1024=FACE_BOUND('',#957,.T.);
#1025=FACE_BOUND('',#958,.T.);
#1026=FACE_BOUND('',#959,.T.);
#1027=FACE_BOUND('',#960,.T.);
#1028=FACE_BOUND('',#961,.T.);
#1029=FACE_BOUND('',#962,.T.);
#1030=FACE_BOUND('',#963,.T.);
#1031=FACE_BOUND('',#964,.T.);
#1032=FACE_BOUND('',#965,.T.);
#1033=FACE_BOUND('',#966,.T.);
#1034=FACE_BOUND('',#967,.T.);
#1035=FACE_BOUND('',#968,.T.);
#1036=FACE_BOUND('',#969,.T.);
#1037=FACE_BOUND('',#970,.T.);
#1038=FACE_BOUND('',#971,.T.);
#1039=FACE_BOUND('',#972,.T.);
#1040=FACE_BOUND('',#973,.T.);
#1041=FACE_BOUND('',#974,.T.);
#1042=FACE_BOUND('',#975,.T.);
#1043=FACE_BOUND('',#976,.T.);
#1044=FACE_BOUND('',#977,.T.);
#1045=FACE_BOUND('',#978,.T.);
#1046=FACE_BOUND('',#979,.T.);
#1047=FACE_BOUND('',#980,.T.);
#1048=FACE_BOUND('',#981,.T.);
#1049=FACE_BOUND('',#982,.T.);
#1050=FACE_BOUND('',#983,.T.);
#1051=FACE_BOUND('',#984,.T.);
#1052=FACE_BOUND('',#985,.T.);
#1053=FACE_BOUND('',#986,.T.);
#1054=FACE_BOUND('',#987,.T.);
#1055=FACE_BOUND('',#988,.T.);
#1056=FACE_BOUND('',#989,.T.);
#1057=FACE_BOUND('',#990,.T.);
#1058=FACE_BOUND('',#991,.T.);
#1059=FACE_BOUND('',#992,.T.);
#1060=FACE_BOUND('',#993,.T.);
#1061=FACE_BOUND('',#994,.T.);
#1062=FACE_BOUND('',#995,.T.);
#1063=FACE_BOUND('',#996,.T.);
#1064=FACE_BOUND('',#997,.T.);
#1065=FACE_BOUND('',#998,.T.);
#1066=FACE_BOUND('',#999,.T.);
#1067=FACE_BOUND('',#1000,.T.);
#1068=FACE_BOUND('',#1001,.T.);
#1069=FACE_BOUND('',#1002,.T.);
#1070=FACE_BOUND('',#1003,.T.);
#1071=FACE_BOUND('',#1004,.T.);
#1072=FACE_BOUND('',#1005,.T.);
#1073=FACE_BOUND('',#1006,.T.);
#1074=FACE_BOUND('',#1007,.T.);
#1075=FACE_BOUND('',#1008,.T.);
#1076=FACE_BOUND('',#1009,.T.);
#1077=FACE_BOUND('',#1010,.T.);
#1078=FACE_BOUND('',#1011,.T.);
#1079=FACE_BOUND('',#1012,.T.);
#1080=FACE_BOUND('',#1013,.T.);
#1081=PLANE('',#1216);
#1082=PLANE('',#1217);
#1083=PLANE('',#1218);
#1084=PLANE('',#1219);
#1085=PLANE('',#1220);
#1086=PLANE('',#1221);
#1087=PLANE('',#1222);
#1088=PLANE('',#1223);
#1089=PLANE('',#1224);
#1090=PLANE('',#1225);
#1091=PLANE('',#1226);
#1092=PLANE('',#1227);
#1093=PLANE('',#1228);
#1094=PLANE('',#1229);
#1095=PLANE('',#1230);
#1096=PLANE('',#1231);
#1097=PLANE('',#1232);
#1098=PLANE('',#1233);
#1099=PLANE('',#1234);
#1100=PLANE('',#1235);
#1101=PLANE('',#1236);
#1102=PLANE('',#1237);
#1103=PLANE('',#1238);
#1104=PLANE('',#1239);
#1105=PLANE('',#1240);
#1106=PLANE('',#1241);
#1107=PLANE('',#1242);
#1108=PLANE('',#1243);
#1109=PLANE('',#1244);
#1110=PLANE('',#1245);
#1111=PLANE('',#1246);
#1112=PLANE('',#1247);
#1113=PLANE('',#1248);
#1114=PLANE('',#1249);
#1115=PLANE('',#1250);
#1116=PLANE('',#1251);
#1117=PLANE('',#1252);
#1118=PLANE('',#1253);
#1119=PLANE('',#1254);
#1120=PLANE('',#1255);
#1121=PLANE('',#1256);
#1122=PLANE('',#1257);
#1123=PLANE('',#1258);
#1124=PLANE('',#1259);
#1125=PLANE('',#1260);
#1126=PLANE('',#1261);
#1127=PLANE('',#1262);
#1128=PLANE('',#1263);
#1129=PLANE('',#1264);
#1130=PLANE('',#1265);
#1131=PLANE('',#1266);
#1132=PLANE('',#1267);
#1133=PLANE('',#1268);
#1134=PLANE('',#1269);
#1135=PLANE('',#1270);
#1136=PLANE('',#1271);
#1137=PLANE('',#1272);
#1138=PLANE('',#1273);
#1139=PLANE('',#1274);
#1140=PLANE('',#1275);
#1141=PLANE('',#1276);
#1142=ADVANCED_FACE('',(#1014,#1015,#1016,#1017,#1018,#1019),#1081,.F.);
#1143=ADVANCED_FACE('',(#1020),#1082,.T.);
#1144=ADVANCED_FACE('',(#1021),#1083,.F.);
#1145=ADVANCED_FACE('',(#1022),#1084,.F.);
#1146=ADVANCED_FACE('',(#1023),#1085,.T.);
#1147=ADVANCED_FACE('',(#1024,#1025),#1086,.T.);
#1148=ADVANCED_FACE('',(#1026),#1087,.F.);
#1149=ADVANCED_FACE('',(#1027),#1088,.F.);
#1150=ADVANCED_FACE('',(#1028),#1089,.T.);
#1151=ADVANCED_FACE('',(#1029),#1090,.T.);
#1152=ADVANCED_FACE('',(#1030),#1091,.T.);
#1153=ADVANCED_FACE('',(#1031),#1092,.F.);
#1154=ADVANCED_FACE('',(#1032),#1093,.F.);
#1155=ADVANCED_FACE('',(#1033),#1094,.T.);
#1156=ADVANCED_FACE('',(#1034),#1095,.T.);
#1157=ADVANCED_FACE('',(#1035),#1096,.T.);
#1158=ADVANCED_FACE('',(#1036),#1097,.F.);
#1159=ADVANCED_FACE('',(#1037),#1098,.F.);
#1160=ADVANCED_FACE('',(#1038),#1099,.T.);
#1161=ADVANCED_FACE('',(#1039),#1100,.T.);
#1162=ADVANCED_FACE('',(#1040),#1101,.T.);
#1163=ADVANCED_FACE('',(#1041),#1102,.F.);
#1164=ADVANCED_FACE('',(#1042),#1103,.F.);
#1165=ADVANCED_FACE('',(#1043),#1104,.T.);
#1166=ADVANCED_FACE('',(#1044),#1105,.T.);
#1167=ADVANCED_FACE('',(#1045),#1106,.T.);
#1168=ADVANCED_FACE('',(#1046),#1107,.F.);
#1169=ADVANCED_FACE('',(#1047),#1108,.F.);
#1170=ADVANCED_FACE('',(#1048),#1109,.T.);
#1171=ADVANCED_FACE('',(#1049),#1110,.T.);
#1172=ADVANCED_FACE('',(#1050),#1111,.F.);
#1173=ADVANCED_FACE('',(#1051),#1112,.F.);
#1174=ADVANCED_FACE('',(#1052),#1113,.T.);
#1175=ADVANCED_FACE('',(#1053),#1114,.T.);
#1176=ADVANCED_FACE('',(#1054),#1115,.F.);
#1177=ADVANCED_FACE('',(#1055),#1116,.T.);
#1178=ADVANCED_FACE('',(#1056),#1117,.F.);
#1179=ADVANCED_FACE('',(#1057),#1118,.T.);
#1180=ADVANCED_FACE('',(#1058),#1119,.T.);
#1181=ADVANCED_FACE('',(#1059),#1120,.T.);
#1182=ADVANCED_FACE('',(#1060),#1121,.T.);
#1183=ADVANCED_FACE('',(#1061),#1122,.T.);
#1184=ADVANCED_FACE('',(#1062),#1123,.F.);
#1185=ADVANCED_FACE('',(#1063),#1124,.T.);
#1186=ADVANCED_FACE('',(#1064),#1125,.T.);
#1187=ADVANCED_FACE('',(#1065),#1126,.T.);
#1188=ADVANCED_FACE('',(#1066),#1127,.T.);
#1189=ADVANCED_FACE('',(#1067),#1128,.T.);
#1190=ADVANCED_FACE('',(#1068),#1129,.T.);
#1191=ADVANCED_FACE('',(#1069),#1130,.T.);
#1192=ADVANCED_FACE('',(#1070),#1131,.T.);
#1193=ADVANCED_FACE('',(#1071),#1132,.T.);
#1194=ADVANCED_FACE('',(#1072),#1133,.F.);
#1195=ADVANCED_FACE('',(#1073),#1134,.T.);
#1196=ADVANCED_FACE('',(#1074),#1135,.F.);
#1197=ADVANCED_FACE('',(#1075),#1136,.T.);
#1198=ADVANCED_FACE('',(#1076),#1137,.T.);
#1199=ADVANCED_FACE('',(#1077),#1138,.F.);
#1200=ADVANCED_FACE('',(#1078),#1139,.F.);
#1201=ADVANCED_FACE('',(#1079),#1140,.T.);
#1202=ADVANCED_FACE('',(#1080),#1141,.T.);
#1203=CLOSED_SHELL('',(#1142,#1143,#1144,#1145,#1146,#1147,#1148,#1149,
#1150,#1151,#1152,#1153,#1154,#1155,#1156,#1157,#1158,#1159,#1160,#1161,
#1162,#1163,#1164,#1165,#1166,#1167,#1168,#1169,#1170,#1171,#1172,#1173,
#1174,#1175,#1176,#1177,#1178,#1179,#1180,#1181,#1182,#1183,#1184,#1185,
#1186,#1187,#1188,#1189,#1190,#1191,#1192,#1193,#1194,#1195,#1196,#1197,
#1198,#1199,#1200,#1201,#1202));
#1204=STYLED_ITEM('',(#1205),#1212);
#1205=PRESENTATION_STYLE_ASSIGNMENT((#1206));
#1206=SURFACE_STYLE_USAGE(.BOTH.,#1207);
#1207=SURFACE_SIDE_STYLE('',(#1208));
#1208=SURFACE_STYLE_FILL_AREA(#1209);
#1209=FILL_AREA_STYLE('',(#1210));
#1210=FILL_AREA_STYLE_COLOUR('',#1211);
#1211=COLOUR_RGB('',0.615686274509804,0.811764705882353,0.929411764705882);
#1212=MANIFOLD_SOLID_BREP('Part 1',#1203);
#1213=SHAPE_DEFINITION_REPRESENTATION(#1909,#1214);
#1214=SHAPE_REPRESENTATION('Part 1',(#1215),#1904);
#1215=AXIS2_PLACEMENT_3D('',#1566,#1277,#1278);
#1216=AXIS2_PLACEMENT_3D('',#1567,#1279,#1280);
#1217=AXIS2_PLACEMENT_3D('',#1672,#1333,#1334);
#1218=AXIS2_PLACEMENT_3D('',#1678,#1338,#1339);
#1219=AXIS2_PLACEMENT_3D('',#1682,#1342,#1343);
#1220=AXIS2_PLACEMENT_3D('',#1686,#1346,#1347);
#1221=AXIS2_PLACEMENT_3D('',#1688,#1349,#1350);
#1222=AXIS2_PLACEMENT_3D('',#1697,#1355,#1356);
#1223=AXIS2_PLACEMENT_3D('',#1700,#1359,#1360);
#1224=AXIS2_PLACEMENT_3D('',#1702,#1362,#1363);
#1225=AXIS2_PLACEMENT_3D('',#1704,#1365,#1366);
#1226=AXIS2_PLACEMENT_3D('',#1705,#1367,#1368);
#1227=AXIS2_PLACEMENT_3D('',#1716,#1375,#1376);
#1228=AXIS2_PLACEMENT_3D('',#1720,#1379,#1380);
#1229=AXIS2_PLACEMENT_3D('',#1724,#1383,#1384);
#1230=AXIS2_PLACEMENT_3D('',#1726,#1386,#1387);
#1231=AXIS2_PLACEMENT_3D('',#1727,#1388,#1389);
#1232=AXIS2_PLACEMENT_3D('',#1737,#1395,#1396);
#1233=AXIS2_PLACEMENT_3D('',#1744,#1401,#1402);
#1234=AXIS2_PLACEMENT_3D('',#1748,#1405,#1406);
#1235=AXIS2_PLACEMENT_3D('',#1750,#1408,#1409);
#1236=AXIS2_PLACEMENT_3D('',#1751,#1410,#1411);
#1237=AXIS2_PLACEMENT_3D('',#1762,#1418,#1419);
#1238=AXIS2_PLACEMENT_3D('',#1766,#1422,#1423);
#1239=AXIS2_PLACEMENT_3D('',#1770,#1426,#1427);
#1240=AXIS2_PLACEMENT_3D('',#1772,#1429,#1430);
#1241=AXIS2_PLACEMENT_3D('',#1773,#1431,#1432);
#1242=AXIS2_PLACEMENT_3D('',#1782,#1437,#1438);
#1243=AXIS2_PLACEMENT_3D('',#1789,#1443,#1444);
#1244=AXIS2_PLACEMENT_3D('',#1793,#1447,#1448);
#1245=AXIS2_PLACEMENT_3D('',#1798,#1452,#1453);
#1246=AXIS2_PLACEMENT_3D('',#1799,#1454,#1455);
#1247=AXIS2_PLACEMENT_3D('',#1805,#1459,#1460);
#1248=AXIS2_PLACEMENT_3D('',#1807,#1462,#1463);
#1249=AXIS2_PLACEMENT_3D('',#1811,#1466,#1467);
#1250=AXIS2_PLACEMENT_3D('',#1815,#1470,#1471);
#1251=AXIS2_PLACEMENT_3D('',#1817,#1473,#1474);
#1252=AXIS2_PLACEMENT_3D('',#1818,#1475,#1476);
#1253=AXIS2_PLACEMENT_3D('',#1822,#1479,#1480);
#1254=AXIS2_PLACEMENT_3D('',#1826,#1483,#1484);
#1255=AXIS2_PLACEMENT_3D('',#1830,#1487,#1488);
#1256=AXIS2_PLACEMENT_3D('',#1834,#1491,#1492);
#1257=AXIS2_PLACEMENT_3D('',#1838,#1495,#1496);
#1258=AXIS2_PLACEMENT_3D('',#1842,#1499,#1500);
#1259=AXIS2_PLACEMENT_3D('',#1844,#1502,#1503);
#1260=AXIS2_PLACEMENT_3D('',#1845,#1504,#1505);
#1261=AXIS2_PLACEMENT_3D('',#1849,#1508,#1509);
#1262=AXIS2_PLACEMENT_3D('',#1853,#1512,#1513);
#1263=AXIS2_PLACEMENT_3D('',#1855,#1515,#1516);
#1264=AXIS2_PLACEMENT_3D('',#1856,#1517,#1518);
#1265=AXIS2_PLACEMENT_3D('',#1862,#1522,#1523);
#1266=AXIS2_PLACEMENT_3D('',#1866,#1526,#1527);
#1267=AXIS2_PLACEMENT_3D('',#1870,#1530,#1531);
#1268=AXIS2_PLACEMENT_3D('',#1874,#1534,#1535);
#1269=AXIS2_PLACEMENT_3D('',#1878,#1538,#1539);
#1270=AXIS2_PLACEMENT_3D('',#1882,#1542,#1543);
#1271=AXIS2_PLACEMENT_3D('',#1886,#1546,#1547);
#1272=AXIS2_PLACEMENT_3D('',#1888,#1549,#1550);
#1273=AXIS2_PLACEMENT_3D('',#1892,#1553,#1554);
#1274=AXIS2_PLACEMENT_3D('',#1896,#1557,#1558);
#1275=AXIS2_PLACEMENT_3D('',#1900,#1561,#1562);
#1276=AXIS2_PLACEMENT_3D('',#1902,#1564,#1565);
#1277=DIRECTION('',(0.,0.,1.));
#1278=DIRECTION('',(1.,0.,0.));
#1279=DIRECTION('',(0.,0.,1.));
#1280=DIRECTION('',(1.,0.,0.));
#1281=DIRECTION('',(1.,0.,0.));
#1282=DIRECTION('',(-2.01858731750028E-16,-1.,0.));
#1283=DIRECTION('',(1.,0.,0.));
#1284=DIRECTION('',(-2.01858731750028E-16,-1.,0.));
#1285=DIRECTION('',(0.999890836874075,-0.0147754639609773,0.));
#1286=DIRECTION('',(0.,-1.,0.));
#1287=DIRECTION('',(1.,0.,0.));
#1288=DIRECTION('',(1.40822179145511E-16,-1.,0.));
#1289=DIRECTION('',(-1.,0.,0.));
#1290=DIRECTION('',(0.,-1.,0.));
#1291=DIRECTION('',(-1.,1.34351307367817E-16,0.));
#1292=DIRECTION('',(0.,-1.,0.));
#1293=DIRECTION('',(-1.,0.,0.));
#1294=DIRECTION('',(0.,-1.,0.));
#1295=DIRECTION('',(-1.,0.,0.));
#1296=DIRECTION('',(0.,-1.,0.));
#1297=DIRECTION('',(-1.,0.,0.));
#1298=DIRECTION('',(0.,-1.,0.));
#1299=DIRECTION('',(-1.,0.,0.));
#1300=DIRECTION('',(0.,-1.,0.));
#1301=DIRECTION('',(-1.,0.,0.));
#1302=DIRECTION('',(0.,1.,0.));
#1303=DIRECTION('',(-1.,0.,0.));
#1304=DIRECTION('',(0.,1.,0.));
#1305=DIRECTION('',(0.,-1.,0.));
#1306=DIRECTION('',(-1.,0.,0.));
#1307=DIRECTION('',(0.,1.,0.));
#1308=DIRECTION('',(-1.,0.,0.));
#1309=DIRECTION('',(0.,-1.,0.));
#1310=DIRECTION('',(-1.,0.,0.));
#1311=DIRECTION('',(-1.,0.,0.));
#1312=DIRECTION('',(0.0350631475044052,-0.999385098791794,0.));
#1313=DIRECTION('',(-1.,0.,0.));
#1314=DIRECTION('',(0.,-1.,0.));
#1315=DIRECTION('',(-1.,0.,0.));
#1316=DIRECTION('',(0.,-1.,0.));
#1317=DIRECTION('',(-1.,0.,0.));
#1318=DIRECTION('',(0.,-1.,0.));
#1319=DIRECTION('',(1.,0.,0.));
#1320=DIRECTION('',(0.,1.,0.));
#1321=DIRECTION('',(0.,-1.,0.));
#1322=DIRECTION('',(-1.,0.,0.));
#1323=DIRECTION('',(0.,-1.,0.));
#1324=DIRECTION('',(-1.,0.,0.));
#1325=DIRECTION('',(0.,1.,0.));
#1326=DIRECTION('',(-1.,0.,0.));
#1327=DIRECTION('',(0.,1.,0.));
#1328=DIRECTION('',(-1.,0.,0.));
#1329=DIRECTION('',(0.,-1.,0.));
#1330=DIRECTION('',(-1.,0.,0.));
#1331=DIRECTION('',(0.,-1.,0.));
#1332=DIRECTION('',(-1.,0.,0.));
#1333=DIRECTION('',(0.,1.,0.));
#1334=DIRECTION('',(0.,0.,1.));
#1335=DIRECTION('',(0.,0.,-1.));
#1336=DIRECTION('',(1.,0.,0.));
#1337=DIRECTION('',(0.,0.,-1.));
#1338=DIRECTION('',(1.,-2.01858731750028E-16,0.));
#1339=DIRECTION('',(2.01858731750028E-16,1.,0.));
#1340=DIRECTION('',(0.,0.,-1.));
#1341=DIRECTION('',(-2.01858731750028E-16,-1.,0.));
#1342=DIRECTION('',(0.,1.,0.));
#1343=DIRECTION('',(0.,0.,1.));
#1344=DIRECTION('',(0.,0.,-1.));
#1345=DIRECTION('',(1.,0.,0.));
#1346=DIRECTION('',(1.,-2.01858731750028E-16,0.));
#1347=DIRECTION('',(2.01858731750028E-16,1.,0.));
#1348=DIRECTION('',(-2.01858731750028E-16,-1.,0.));
#1349=DIRECTION('',(0.,0.,1.));
#1350=DIRECTION('',(1.,0.,0.));
#1351=DIRECTION('',(0.,-1.,0.));
#1352=DIRECTION('',(0.999890836874075,-0.0147754639609773,0.));
#1353=DIRECTION('',(1.40822179145511E-16,-1.,0.));
#1354=DIRECTION('',(1.,0.,0.));
#1355=DIRECTION('',(-1.,0.,0.));
#1356=DIRECTION('',(0.,0.,1.));
#1357=DIRECTION('',(0.,0.,1.));
#1358=DIRECTION('',(0.,0.,1.));
#1359=DIRECTION('',(0.,-1.,0.));
#1360=DIRECTION('',(0.,0.,-1.));
#1361=DIRECTION('',(0.,0.,1.));
#1362=DIRECTION('',(-1.,-1.40822179145511E-16,0.));
#1363=DIRECTION('',(1.40822179145511E-16,-1.,0.));
#1364=DIRECTION('',(0.,0.,1.));
#1365=DIRECTION('',(-0.0147754639609773,-0.999890836874075,0.));
#1366=DIRECTION('',(0.999890836874075,-0.0147754639609773,0.));
#1367=DIRECTION('',(0.,1.,0.));
#1368=DIRECTION('',(0.,0.,1.));
#1369=DIRECTION('',(0.,0.,1.));
#1370=DIRECTION('',(-1.,0.,0.));
#1371=DIRECTION('',(0.,0.,1.));
#1372=DIRECTION('',(0.,0.,1.));
#1373=DIRECTION('',(-1.,0.,0.));
#1374=DIRECTION('',(0.,0.,1.));
#1375=DIRECTION('',(-1.,0.,0.));
#1376=DIRECTION('',(0.,0.,1.));
#1377=DIRECTION('',(0.,0.,1.));
#1378=DIRECTION('',(0.,-1.,0.));
#1379=DIRECTION('',(0.,1.,0.));
#1380=DIRECTION('',(0.,0.,1.));
#1381=DIRECTION('',(0.,0.,1.));
#1382=DIRECTION('',(-1.,0.,0.));
#1383=DIRECTION('',(-1.,0.,0.));
#1384=DIRECTION('',(0.,0.,1.));
#1385=DIRECTION('',(0.,-1.,0.));
#1386=DIRECTION('',(0.,0.,-1.));
#1387=DIRECTION('',(1.,0.,0.));
#1388=DIRECTION('',(1.34351307367817E-16,1.,0.));
#1389=DIRECTION('',(-1.,1.34351307367817E-16,0.));
#1390=DIRECTION('',(0.,0.,1.));
#1391=DIRECTION('',(-1.,1.34351307367817E-16,0.));
#1392=DIRECTION('',(0.,0.,1.));
#1393=DIRECTION('',(-1.,1.34351307367817E-16,0.));
#1394=DIRECTION('',(0.,0.,1.));
#1395=DIRECTION('',(-1.,0.,0.));
#1396=DIRECTION('',(0.,0.,1.));
#1397=DIRECTION('',(0.,0.,1.));
#1398=DIRECTION('',(0.,-1.,0.));
#1399=DIRECTION('',(0.,1.,0.));
#1400=DIRECTION('',(0.,0.,1.));
#1401=DIRECTION('',(0.,1.,0.));
#1402=DIRECTION('',(0.,0.,1.));
#1403=DIRECTION('',(0.,0.,1.));
#1404=DIRECTION('',(-1.,0.,0.));
#1405=DIRECTION('',(-1.,0.,0.));
#1406=DIRECTION('',(0.,0.,1.));
#1407=DIRECTION('',(0.,-1.,0.));
#1408=DIRECTION('',(0.,0.,-1.));
#1409=DIRECTION('',(1.,0.,0.));
#1410=DIRECTION('',(0.,1.,0.));
#1411=DIRECTION('',(0.,0.,1.));
#1412=DIRECTION('',(0.,0.,1.));
#1413=DIRECTION('',(-1.,0.,0.));
#1414=DIRECTION('',(0.,0.,1.));
#1415=DIRECTION('',(0.,0.,1.));
#1416=DIRECTION('',(-1.,0.,0.));
#1417=DIRECTION('',(0.,0.,1.));
#1418=DIRECTION('',(-1.,0.,0.));
#1419=DIRECTION('',(0.,0.,1.));
#1420=DIRECTION('',(0.,0.,1.));
#1421=DIRECTION('',(0.,-1.,0.));
#1422=DIRECTION('',(0.,1.,0.));
#1423=DIRECTION('',(0.,0.,1.));
#1424=DIRECTION('',(0.,0.,1.));
#1425=DIRECTION('',(-1.,0.,0.));
#1426=DIRECTION('',(-1.,0.,0.));
#1427=DIRECTION('',(0.,0.,1.));
#1428=DIRECTION('',(0.,-1.,0.));
#1429=DIRECTION('',(0.,0.,-1.));
#1430=DIRECTION('',(1.,0.,0.));
#1431=DIRECTION('',(0.,1.,0.));
#1432=DIRECTION('',(0.,0.,1.));
#1433=DIRECTION('',(-1.,0.,0.));
#1434=DIRECTION('',(0.,0.,1.));
#1435=DIRECTION('',(-1.,0.,0.));
#1436=DIRECTION('',(0.,0.,1.));
#1437=DIRECTION('',(-1.,0.,0.));
#1438=DIRECTION('',(0.,0.,1.));
#1439=DIRECTION('',(0.,0.,1.));
#1440=DIRECTION('',(0.,-1.,0.));
#1441=DIRECTION('',(0.,1.,0.));
#1442=DIRECTION('',(0.,0.,1.));
#1443=DIRECTION('',(0.,1.,0.));
#1444=DIRECTION('',(0.,0.,1.));
#1445=DIRECTION('',(0.,0.,1.));
#1446=DIRECTION('',(-1.,0.,0.));
#1447=DIRECTION('',(-1.,0.,0.));
#1448=DIRECTION('',(0.,0.,1.));
#1449=DIRECTION('',(0.,0.,1.));
#1450=DIRECTION('',(0.,1.,0.));
#1451=DIRECTION('',(0.,-1.,0.));
#1452=DIRECTION('',(0.,0.,-1.));
#1453=DIRECTION('',(1.,0.,0.));
#1454=DIRECTION('',(0.,-1.,0.));
#1455=DIRECTION('',(0.,0.,-1.));
#1456=DIRECTION('',(0.,0.,1.));
#1457=DIRECTION('',(1.,0.,0.));
#1458=DIRECTION('',(0.,0.,1.));
#1459=DIRECTION('',(-1.,0.,0.));
#1460=DIRECTION('',(0.,0.,1.));
#1461=DIRECTION('',(0.,-1.,0.));
#1462=DIRECTION('',(-0.999385098791794,-0.0350631475044052,0.));
#1463=DIRECTION('',(0.0350631475044052,-0.999385098791794,0.));
#1464=DIRECTION('',(0.,0.,1.));
#1465=DIRECTION('',(0.0350631475044052,-0.999385098791794,0.));
#1466=DIRECTION('',(0.,1.,0.));
#1467=DIRECTION('',(0.,0.,1.));
#1468=DIRECTION('',(0.,0.,1.));
#1469=DIRECTION('',(-1.,0.,0.));
#1470=DIRECTION('',(1.,0.,0.));
#1471=DIRECTION('',(0.,0.,-1.));
#1472=DIRECTION('',(0.,1.,0.));
#1473=DIRECTION('',(0.,0.,-1.));
#1474=DIRECTION('',(1.,0.,0.));
#1475=DIRECTION('',(1.,0.,0.));
#1476=DIRECTION('',(0.,0.,-1.));
#1477=DIRECTION('',(0.,0.,1.));
#1478=DIRECTION('',(0.,1.,0.));
#1479=DIRECTION('',(0.,1.,0.));
#1480=DIRECTION('',(0.,0.,1.));
#1481=DIRECTION('',(0.,0.,1.));
#1482=DIRECTION('',(-1.,0.,0.));
#1483=DIRECTION('',(1.,0.,0.));
#1484=DIRECTION('',(0.,0.,-1.));
#1485=DIRECTION('',(0.,0.,1.));
#1486=DIRECTION('',(0.,1.,0.));
#1487=DIRECTION('',(0.,1.,0.));
#1488=DIRECTION('',(0.,0.,1.));
#1489=DIRECTION('',(0.,0.,1.));
#1490=DIRECTION('',(-1.,0.,0.));
#1491=DIRECTION('',(-1.,0.,0.));
#1492=DIRECTION('',(0.,0.,1.));
#1493=DIRECTION('',(0.,0.,1.));
#1494=DIRECTION('',(0.,-1.,0.));
#1495=DIRECTION('',(0.,1.,0.));
#1496=DIRECTION('',(0.,0.,1.));
#1497=DIRECTION('',(0.,0.,1.));
#1498=DIRECTION('',(-1.,0.,0.));
#1499=DIRECTION('',(-1.,0.,0.));
#1500=DIRECTION('',(0.,0.,1.));
#1501=DIRECTION('',(0.,-1.,0.));
#1502=DIRECTION('',(0.,0.,-1.));
#1503=DIRECTION('',(1.,0.,0.));
#1504=DIRECTION('',(0.,1.,0.));
#1505=DIRECTION('',(0.,0.,1.));
#1506=DIRECTION('',(0.,0.,1.));
#1507=DIRECTION('',(-1.,0.,0.));
#1508=DIRECTION('',(1.,0.,0.));
#1509=DIRECTION('',(0.,0.,-1.));
#1510=DIRECTION('',(0.,0.,1.));
#1511=DIRECTION('',(0.,1.,0.));
#1512=DIRECTION('',(0.,1.,0.));
#1513=DIRECTION('',(0.,0.,1.));
#1514=DIRECTION('',(-1.,0.,0.));
#1515=DIRECTION('',(0.,0.,-1.));
#1516=DIRECTION('',(1.,0.,0.));
#1517=DIRECTION('',(1.,0.,0.));
#1518=DIRECTION('',(0.,0.,-1.));
#1519=DIRECTION('',(0.,0.,1.));
#1520=DIRECTION('',(0.,1.,0.));
#1521=DIRECTION('',(0.,0.,1.));
#1522=DIRECTION('',(0.,1.,0.));
#1523=DIRECTION('',(0.,0.,1.));
#1524=DIRECTION('',(0.,0.,1.));
#1525=DIRECTION('',(-1.,0.,0.));
#1526=DIRECTION('',(-1.,0.,0.));
#1527=DIRECTION('',(0.,0.,1.));
#1528=DIRECTION('',(0.,0.,1.));
#1529=DIRECTION('',(0.,-1.,0.));
#1530=DIRECTION('',(0.,1.,0.));
#1531=DIRECTION('',(0.,0.,1.));
#1532=DIRECTION('',(0.,0.,1.));
#1533=DIRECTION('',(-1.,0.,0.));
#1534=DIRECTION('',(-1.,0.,0.));
#1535=DIRECTION('',(0.,0.,1.));
#1536=DIRECTION('',(0.,0.,1.));
#1537=DIRECTION('',(0.,-1.,0.));
#1538=DIRECTION('',(0.,1.,0.));
#1539=DIRECTION('',(0.,0.,1.));
#1540=DIRECTION('',(0.,0.,1.));
#1541=DIRECTION('',(-1.,0.,0.));
#1542=DIRECTION('',(-1.,0.,0.));
#1543=DIRECTION('',(0.,0.,1.));
#1544=DIRECTION('',(0.,0.,1.));
#1545=DIRECTION('',(0.,-1.,0.));
#1546=DIRECTION('',(0.,1.,0.));
#1547=DIRECTION('',(0.,0.,1.));
#1548=DIRECTION('',(-1.,0.,0.));
#1549=DIRECTION('',(-1.,0.,0.));
#1550=DIRECTION('',(0.,0.,1.));
#1551=DIRECTION('',(0.,0.,1.));
#1552=DIRECTION('',(0.,-1.,0.));
#1553=DIRECTION('',(0.,1.,0.));
#1554=DIRECTION('',(0.,0.,1.));
#1555=DIRECTION('',(0.,0.,1.));
#1556=DIRECTION('',(-1.,0.,0.));
#1557=DIRECTION('',(1.,0.,0.));
#1558=DIRECTION('',(0.,0.,-1.));
#1559=DIRECTION('',(0.,0.,1.));
#1560=DIRECTION('',(0.,1.,0.));
#1561=DIRECTION('',(0.,1.,0.));
#1562=DIRECTION('',(0.,0.,1.));
#1563=DIRECTION('',(-1.,0.,0.));
#1564=DIRECTION('',(0.,0.,-1.));
#1565=DIRECTION('',(1.,0.,0.));
#1566=CARTESIAN_POINT('',(0.,0.,0.));
#1567=CARTESIAN_POINT('',(-0.00468266225106437,0.,0.));
#1568=CARTESIAN_POINT('',(-0.00468266225106435,0.06875,0.));
#1569=CARTESIAN_POINT('',(-0.0734326622510644,0.06875,0.));
#1570=CARTESIAN_POINT('',(0.0640673377489357,0.06875,0.));
#1571=CARTESIAN_POINT('',(0.0640673377489357,-1.38777878078145E-17,0.));
#1572=CARTESIAN_POINT('',(0.0640673377489356,-0.06875,0.));
#1573=CARTESIAN_POINT('',(-0.00468266225106438,-0.06875,0.));
#1574=CARTESIAN_POINT('',(-0.0734326622510644,-0.06875,0.));
#1575=CARTESIAN_POINT('',(-0.0734326622510644,0.,0.));
#1576=CARTESIAN_POINT('',(-0.00417891302979302,0.0340899095799604,0.));
#1577=CARTESIAN_POINT('',(-0.0325515208844794,0.0345091737929883,0.));
#1578=CARTESIAN_POINT('',(0.0146106243712049,0.0338122551376216,0.));
#1579=CARTESIAN_POINT('',(-0.0325515208844794,0.,0.));
#1580=CARTESIAN_POINT('',(-0.0325515208844794,-0.0400989775887655,0.));
#1581=CARTESIAN_POINT('',(-0.00468266225106437,-0.0400989775887655,0.));
#1582=CARTESIAN_POINT('',(0.014610624371205,-0.0400989775887655,0.));
#1583=CARTESIAN_POINT('',(0.0146106243712049,2.7169226650269E-18,0.));
#1584=CARTESIAN_POINT('',(0.0219274358878616,0.0331567752449199,0.));
#1585=CARTESIAN_POINT('',(0.0224772233639831,0.0331567752449199,0.));
#1586=CARTESIAN_POINT('',(0.02137764841174,0.0331567752449199,0.));
#1587=CARTESIAN_POINT('',(0.0224772233639831,0.0313786397387446,0.));
#1588=CARTESIAN_POINT('',(0.0224772233639831,0.0296005042325693,0.));
#1589=CARTESIAN_POINT('',(0.0342894950469768,0.0296005042325693,0.));
#1590=CARTESIAN_POINT('',(0.02137764841174,0.0296005042325693,0.));
#1591=CARTESIAN_POINT('',(0.02137764841174,0.0281120632848824,0.));
#1592=CARTESIAN_POINT('',(0.02137764841174,0.0266236223371955,0.));
#1593=CARTESIAN_POINT('',(0.0342894950469768,0.0266236223371955,0.));
#1594=CARTESIAN_POINT('',(0.0472013416822135,0.0266236223371955,0.));
#1595=CARTESIAN_POINT('',(0.0472013416822135,0.0281120632848824,0.));
#1596=CARTESIAN_POINT('',(0.0472013416822135,0.0310400108353493,0.));
#1597=CARTESIAN_POINT('',(0.044636318730934,0.0310400108353493,0.));
#1598=CARTESIAN_POINT('',(0.0420712957796546,0.0310400108353493,0.));
#1599=CARTESIAN_POINT('',(0.0420712957796546,0.0337691917828382,0.));
#1600=CARTESIAN_POINT('',(0.0420712957796546,0.036498372730327,0.));
#1601=CARTESIAN_POINT('',(0.0393029036246047,0.036498372730327,0.));
#1602=CARTESIAN_POINT('',(0.0365345114695547,0.036498372730327,0.));
#1603=CARTESIAN_POINT('',(0.0365345114695547,0.0371827681014247,0.));
#1604=CARTESIAN_POINT('',(0.0365345114695547,0.0378671634725223,0.));
#1605=CARTESIAN_POINT('',(0.0340761958804662,0.0378671634725223,0.));
#1606=CARTESIAN_POINT('',(0.0316178802913776,0.0378671634725223,0.));
#1607=CARTESIAN_POINT('',(0.0316178802913776,0.0355119693587211,0.));
#1608=CARTESIAN_POINT('',(0.0316178802913776,0.0331567752449199,0.));
#1609=CARTESIAN_POINT('',(0.0309502691408474,0.0331567752449199,0.));
#1610=CARTESIAN_POINT('',(0.0302826579903171,0.0331567752449199,0.));
#1611=CARTESIAN_POINT('',(0.0302826579903171,0.033612158077777,0.));
#1612=CARTESIAN_POINT('',(0.0302826579903171,0.0340675409106342,0.));
#1613=CARTESIAN_POINT('',(0.0258301532010285,0.0340675409106342,0.));
#1614=CARTESIAN_POINT('',(0.02137764841174,0.0340675409106342,0.));
#1615=CARTESIAN_POINT('',(0.02137764841174,0.033612158077777,0.));
#1616=CARTESIAN_POINT('',(0.0313750077884043,0.0430051943578674,0.));
#1617=CARTESIAN_POINT('',(0.0313750077884043,0.0500863953573863,0.));
#1618=CARTESIAN_POINT('',(0.0313750077884043,0.0403300281808197,0.));
#1619=CARTESIAN_POINT('',(0.0255392523106266,0.0500863953573863,0.));
#1620=CARTESIAN_POINT('',(0.0197034968328489,0.0500863953573863,0.));
#1621=CARTESIAN_POINT('',(0.0197034968328489,0.052289412768622,0.));
#1622=CARTESIAN_POINT('',(0.0197034968328489,0.0544924301798576,0.));
#1623=CARTESIAN_POINT('',(0.0169252369947586,0.0544924301798576,0.));
#1624=CARTESIAN_POINT('',(0.0141469771566684,0.0544924301798576,0.));
#1625=CARTESIAN_POINT('',(0.0141469771566684,0.0430051943578674,0.));
#1626=CARTESIAN_POINT('',(0.0141469771566684,0.0403300281808197,0.));
#1627=CARTESIAN_POINT('',(0.0227609924725363,0.0403300281808197,0.));
#1628=CARTESIAN_POINT('',(0.0525171734334117,0.0214778296472788,0.));
#1629=CARTESIAN_POINT('',(0.0557479862144937,0.0214778296472788,0.));
#1630=CARTESIAN_POINT('',(0.0492863606523298,0.0214778296472788,0.));
#1631=CARTESIAN_POINT('',(0.0493540159630091,0.0195494885210706,0.));
#1632=CARTESIAN_POINT('',(0.0494216712736884,0.0176211473948623,0.));
#1633=CARTESIAN_POINT('',(0.0551999870736541,0.0176211473948623,0.));
#1634=CARTESIAN_POINT('',(0.0480538925891359,0.0176211473948623,0.));
#1635=CARTESIAN_POINT('',(0.0480538925891359,0.0155384729273015,0.));
#1636=CARTESIAN_POINT('',(0.0480538925891359,0.0134557984597408,0.));
#1637=CARTESIAN_POINT('',(0.0551999870736541,0.0134557984597408,0.));
#1638=CARTESIAN_POINT('',(0.0623460815581723,0.0134557984597408,0.));
#1639=CARTESIAN_POINT('',(0.0623460815581723,0.0155384729273015,0.));
#1640=CARTESIAN_POINT('',(0.0623460815581723,0.0176211473948623,0.));
#1641=CARTESIAN_POINT('',(0.0551999870736541,0.0176211473948623,0.));
#1642=CARTESIAN_POINT('',(0.0617020770952169,0.0176211473948623,0.));
#1643=CARTESIAN_POINT('',(0.0617020770952169,0.0200880668388095,0.));
#1644=CARTESIAN_POINT('',(0.0617020770952169,0.0225549862827567,0.));
#1645=CARTESIAN_POINT('',(0.0587250316548553,0.0225549862827567,0.));
#1646=CARTESIAN_POINT('',(0.0557479862144937,0.0225549862827567,0.));
#1647=CARTESIAN_POINT('',(0.0557479862144937,0.0220164079650178,0.));
#1648=CARTESIAN_POINT('',(0.0602038601257999,0.0505340508773672,0.));
#1649=CARTESIAN_POINT('',(0.0602038601257999,0.0553877412198193,0.));
#1650=CARTESIAN_POINT('',(0.0602038601257999,0.0456803605349151,0.));
#1651=CARTESIAN_POINT('',(0.0578762245897124,0.0553877412198193,0.));
#1652=CARTESIAN_POINT('',(0.0555485890536249,0.0553877412198193,0.));
#1653=CARTESIAN_POINT('',(0.0555485890536249,0.0522791524994407,0.));
#1654=CARTESIAN_POINT('',(0.0555485890536249,0.0491705637790622,0.));
#1655=CARTESIAN_POINT('',(0.0507588332896887,0.0491705637790622,0.));
#1656=CARTESIAN_POINT('',(0.0459690775257526,0.0491705637790622,0.));
#1657=CARTESIAN_POINT('',(0.0459690775257526,0.0514628977790452,0.));
#1658=CARTESIAN_POINT('',(0.0459690775257526,0.0537552317790283,0.));
#1659=CARTESIAN_POINT('',(0.0451046811159389,0.0537552317790283,0.));
#1660=CARTESIAN_POINT('',(0.0442402847061252,0.0537552317790283,0.));
#1661=CARTESIAN_POINT('',(0.0442402847061252,0.0497177961569717,0.));
#1662=CARTESIAN_POINT('',(0.0442402847061252,0.0456803605349151,0.));
#1663=CARTESIAN_POINT('',(0.0510369143078124,0.0456803605349151,0.));
#1664=CARTESIAN_POINT('',(0.0413001420367064,0.0456803605349151,0.));
#1665=CARTESIAN_POINT('',(0.0413001420367064,0.0430504266776678,0.));
#1666=CARTESIAN_POINT('',(0.0413001420367064,0.0404204928204206,0.));
#1667=CARTESIAN_POINT('',(0.0510369143078124,0.0404204928204206,0.));
#1668=CARTESIAN_POINT('',(0.0607736865789185,0.0404204928204206,0.));
#1669=CARTESIAN_POINT('',(0.0607736865789185,0.0430504266776678,0.));
#1670=CARTESIAN_POINT('',(0.0607736865789185,0.0456803605349151,0.));
#1671=CARTESIAN_POINT('',(0.0510369143078124,0.0456803605349151,0.));
#1672=CARTESIAN_POINT('',(-0.00468266225106435,0.06875,0.0025));
#1673=CARTESIAN_POINT('',(-0.0734326622510644,0.06875,0.0025));
#1674=CARTESIAN_POINT('',(-0.0734326622510644,0.06875,0.0025));
#1675=CARTESIAN_POINT('',(-0.00468266225106435,0.06875,0.0025));
#1676=CARTESIAN_POINT('',(0.0640673377489357,0.06875,0.0025));
#1677=CARTESIAN_POINT('',(0.0640673377489357,0.06875,0.0025));
#1678=CARTESIAN_POINT('',(-0.0734326622510644,0.,0.0025));
#1679=CARTESIAN_POINT('',(-0.0734326622510644,-0.06875,0.0025));
#1680=CARTESIAN_POINT('',(-0.0734326622510644,-0.06875,0.0025));
#1681=CARTESIAN_POINT('',(-0.0734326622510644,0.,0.0025));
#1682=CARTESIAN_POINT('',(-0.00468266225106438,-0.06875,0.0025));
#1683=CARTESIAN_POINT('',(0.0640673377489356,-0.06875,0.0025));
#1684=CARTESIAN_POINT('',(0.0640673377489356,-0.06875,0.0025));
#1685=CARTESIAN_POINT('',(-0.00468266225106438,-0.06875,0.0025));
#1686=CARTESIAN_POINT('',(0.0640673377489357,-1.38777878078145E-17,0.0025));
#1687=CARTESIAN_POINT('',(0.0640673377489357,-1.38777878078145E-17,0.0025));
#1688=CARTESIAN_POINT('',(-0.00468266225106437,0.,0.0025));
#1689=CARTESIAN_POINT('',(-0.0325515208844794,-0.0381207850915437,0.0025));
#1690=CARTESIAN_POINT('',(-0.0325515208844794,0.0345091737929883,0.0025));
#1691=CARTESIAN_POINT('',(-0.0325515208844794,-0.0400989775887655,0.0025));
#1692=CARTESIAN_POINT('',(-0.00897044825663725,0.0341607144653049,0.0025));
#1693=CARTESIAN_POINT('',(0.0146106243712049,0.0338122551376216,0.0025));
#1694=CARTESIAN_POINT('',(0.0146106243712049,-0.00314336122557194,0.0025));
#1695=CARTESIAN_POINT('',(0.014610624371205,-0.0400989775887655,0.0025));
#1696=CARTESIAN_POINT('',(-0.0162757604422397,-0.0400989775887655,0.0025));
#1697=CARTESIAN_POINT('',(-0.0325515208844794,-0.0381207850915437,-0.0225));
#1698=CARTESIAN_POINT('',(-0.0325515208844794,0.0345091737929883,-0.0225));
#1699=CARTESIAN_POINT('',(-0.0325515208844794,-0.0400989775887655,-0.0225));
#1700=CARTESIAN_POINT('',(-0.0162757604422397,-0.0400989775887655,-0.0225));
#1701=CARTESIAN_POINT('',(0.014610624371205,-0.0400989775887655,-0.0225));
#1702=CARTESIAN_POINT('',(0.0146106243712049,-0.00314336122557194,-0.0225));
#1703=CARTESIAN_POINT('',(0.0146106243712049,0.0338122551376216,-0.0225));
#1704=CARTESIAN_POINT('',(-0.00897044825663725,0.0341607144653049,-0.0225));
#1705=CARTESIAN_POINT('',(0.0510369143078124,0.0456803605349151,-0.0079));
#1706=CARTESIAN_POINT('',(0.0442402847061252,0.0456803605349151,-0.006));
#1707=CARTESIAN_POINT('',(0.0442402847061252,0.0456803605349151,-0.006));
#1708=CARTESIAN_POINT('',(0.0510369143078124,0.0456803605349151,-0.006));
#1709=CARTESIAN_POINT('',(0.0602038601257999,0.0456803605349151,-0.006));
#1710=CARTESIAN_POINT('',(0.0602038601257999,0.0456803605349151,-0.006));
#1711=CARTESIAN_POINT('',(0.0607736865789185,0.0456803605349151,-0.0079));
#1712=CARTESIAN_POINT('',(0.0607736865789185,0.0456803605349151,-0.0079));
#1713=CARTESIAN_POINT('',(0.0510369143078124,0.0456803605349151,-0.0079));
#1714=CARTESIAN_POINT('',(0.0413001420367064,0.0456803605349151,-0.0079));
#1715=CARTESIAN_POINT('',(0.0413001420367064,0.0456803605349151,-0.0079));
#1716=CARTESIAN_POINT('',(0.0607736865789185,0.0430504266776678,-0.0079));
#1717=CARTESIAN_POINT('',(0.0607736865789185,0.0404204928204206,-0.0079));
#1718=CARTESIAN_POINT('',(0.0607736865789185,0.0404204928204206,-0.0079));
#1719=CARTESIAN_POINT('',(0.0607736865789185,0.0430504266776678,-0.0079));
#1720=CARTESIAN_POINT('',(0.0510369143078124,0.0404204928204206,-0.0079));
#1721=CARTESIAN_POINT('',(0.0413001420367064,0.0404204928204206,-0.0079));
#1722=CARTESIAN_POINT('',(0.0413001420367064,0.0404204928204206,-0.0079));
#1723=CARTESIAN_POINT('',(0.0510369143078124,0.0404204928204206,-0.0079));
#1724=CARTESIAN_POINT('',(0.0413001420367064,0.0430504266776678,-0.0079));
#1725=CARTESIAN_POINT('',(0.0413001420367064,0.0430504266776678,-0.0079));
#1726=CARTESIAN_POINT('',(-0.00468266225106437,0.,-0.0079));
#1727=CARTESIAN_POINT('',(0.0342894950469768,0.0296005042325693,-0.0079));
#1728=CARTESIAN_POINT('',(0.0224772233639831,0.0296005042325693,-0.0065));
#1729=CARTESIAN_POINT('',(0.0224772233639831,0.0296005042325693,-0.0065));
#1730=CARTESIAN_POINT('',(0.0342894950469768,0.0296005042325693,-0.0065));
#1731=CARTESIAN_POINT('',(0.0472013416822135,0.0296005042325693,-0.0065));
#1732=CARTESIAN_POINT('',(0.0472013416822135,0.0296005042325693,-0.0079));
#1733=CARTESIAN_POINT('',(0.0472013416822135,0.0296005042325693,-0.0079));
#1734=CARTESIAN_POINT('',(0.0342894950469768,0.0296005042325693,-0.0079));
#1735=CARTESIAN_POINT('',(0.02137764841174,0.0296005042325693,-0.0079));
#1736=CARTESIAN_POINT('',(0.02137764841174,0.0296005042325693,-0.0079));
#1737=CARTESIAN_POINT('',(0.0472013416822135,0.0281120632848824,-0.0079));
#1738=CARTESIAN_POINT('',(0.0472013416822135,0.0266236223371955,-0.0079));
#1739=CARTESIAN_POINT('',(0.0472013416822135,0.0266236223371955,-0.0079));
#1740=CARTESIAN_POINT('',(0.0472013416822135,0.0281120632848824,-0.0079));
#1741=CARTESIAN_POINT('',(0.0472013416822135,0.0303202575339592,-0.0065));
#1742=CARTESIAN_POINT('',(0.0472013416822135,0.0310400108353493,-0.0065));
#1743=CARTESIAN_POINT('',(0.0472013416822135,0.0310400108353493,-0.0065));
#1744=CARTESIAN_POINT('',(0.0342894950469768,0.0266236223371955,-0.0079));
#1745=CARTESIAN_POINT('',(0.02137764841174,0.0266236223371955,-0.0079));
#1746=CARTESIAN_POINT('',(0.02137764841174,0.0266236223371955,-0.0079));
#1747=CARTESIAN_POINT('',(0.0342894950469768,0.0266236223371955,-0.0079));
#1748=CARTESIAN_POINT('',(0.02137764841174,0.0281120632848824,-0.0079));
#1749=CARTESIAN_POINT('',(0.02137764841174,0.0281120632848824,-0.0079));
#1750=CARTESIAN_POINT('',(-0.00468266225106437,0.,-0.0079));
#1751=CARTESIAN_POINT('',(0.0551999870736541,0.0176211473948623,-0.0079));
#1752=CARTESIAN_POINT('',(0.0494216712736884,0.0176211473948623,-0.0065));
#1753=CARTESIAN_POINT('',(0.0494216712736884,0.0176211473948623,-0.0065));
#1754=CARTESIAN_POINT('',(0.0551999870736541,0.0176211473948623,-0.0065));
#1755=CARTESIAN_POINT('',(0.0617020770952169,0.0176211473948623,-0.0065));
#1756=CARTESIAN_POINT('',(0.0617020770952169,0.0176211473948623,-0.0065));
#1757=CARTESIAN_POINT('',(0.0623460815581723,0.0176211473948623,-0.0079));
#1758=CARTESIAN_POINT('',(0.0623460815581723,0.0176211473948623,-0.0079));
#1759=CARTESIAN_POINT('',(0.0551999870736541,0.0176211473948623,-0.0079));
#1760=CARTESIAN_POINT('',(0.0480538925891359,0.0176211473948623,-0.0079));
#1761=CARTESIAN_POINT('',(0.0480538925891359,0.0176211473948623,-0.0079));
#1762=CARTESIAN_POINT('',(0.0623460815581723,0.0155384729273015,-0.0079));
#1763=CARTESIAN_POINT('',(0.0623460815581723,0.0134557984597408,-0.0079));
#1764=CARTESIAN_POINT('',(0.0623460815581723,0.0134557984597408,-0.0079));
#1765=CARTESIAN_POINT('',(0.0623460815581723,0.0155384729273015,-0.0079));
#1766=CARTESIAN_POINT('',(0.0551999870736541,0.0134557984597408,-0.0079));
#1767=CARTESIAN_POINT('',(0.0480538925891359,0.0134557984597408,-0.0079));
#1768=CARTESIAN_POINT('',(0.0480538925891359,0.0134557984597408,-0.0079));
#1769=CARTESIAN_POINT('',(0.0551999870736541,0.0134557984597408,-0.0079));
#1770=CARTESIAN_POINT('',(0.0480538925891359,0.0155384729273015,-0.0079));
#1771=CARTESIAN_POINT('',(0.0480538925891359,0.0155384729273015,-0.0079));
#1772=CARTESIAN_POINT('',(-0.00468266225106437,0.,-0.0079));
#1773=CARTESIAN_POINT('',(0.0227609924725363,0.0456803605349151,-0.0079));
#1774=CARTESIAN_POINT('',(0.0227609924725363,0.0456803605349151,-0.0047));
#1775=CARTESIAN_POINT('',(0.0313750077884043,0.0456803605349151,-0.0047));
#1776=CARTESIAN_POINT('',(0.0141469771566684,0.0456803605349151,-0.0047));
#1777=CARTESIAN_POINT('',(0.0313750077884043,0.0456803605349151,-0.0079));
#1778=CARTESIAN_POINT('',(0.0313750077884043,0.0456803605349151,-0.0079));
#1779=CARTESIAN_POINT('',(0.0227609924725363,0.0456803605349151,-0.0079));
#1780=CARTESIAN_POINT('',(0.0141469771566684,0.0456803605349151,-0.0079));
#1781=CARTESIAN_POINT('',(0.0141469771566684,0.0456803605349151,-0.0079));
#1782=CARTESIAN_POINT('',(0.0313750077884043,0.0430051943578674,-0.0079));
#1783=CARTESIAN_POINT('',(0.0313750077884043,0.0403300281808197,-0.0079));
#1784=CARTESIAN_POINT('',(0.0313750077884043,0.0403300281808197,-0.0079));
#1785=CARTESIAN_POINT('',(0.0313750077884043,0.0430051943578674,-0.0079));
#1786=CARTESIAN_POINT('',(0.0313750077884043,0.0494766558524054,-0.0047));
#1787=CARTESIAN_POINT('',(0.0313750077884043,0.0500863953573863,-0.0047));
#1788=CARTESIAN_POINT('',(0.0313750077884043,0.0500863953573863,-0.0047));
#1789=CARTESIAN_POINT('',(0.0227609924725363,0.0403300281808197,-0.0079));
#1790=CARTESIAN_POINT('',(0.0141469771566684,0.0403300281808197,-0.0079));
#1791=CARTESIAN_POINT('',(0.0141469771566684,0.0403300281808197,-0.0079));
#1792=CARTESIAN_POINT('',(0.0227609924725363,0.0403300281808197,-0.0079));
#1793=CARTESIAN_POINT('',(0.0141469771566684,0.0430051943578674,-0.0079));
#1794=CARTESIAN_POINT('',(0.0141469771566684,0.0544924301798576,-0.0047));
#1795=CARTESIAN_POINT('',(0.0141469771566684,0.0544924301798576,-0.0047));
#1796=CARTESIAN_POINT('',(0.0141469771566684,0.0500863953573863,-0.0047));
#1797=CARTESIAN_POINT('',(0.0141469771566684,0.0430051943578674,-0.0079));
#1798=CARTESIAN_POINT('',(-0.00468266225106437,0.,-0.0079));
#1799=CARTESIAN_POINT('',(0.0587250316548553,0.0225549862827567,-0.0065));
#1800=CARTESIAN_POINT('',(0.0617020770952169,0.0225549862827567,-0.0065));
#1801=CARTESIAN_POINT('',(0.0617020770952169,0.0225549862827567,-0.0065));
#1802=CARTESIAN_POINT('',(0.0587250316548553,0.0225549862827567,-0.0065));
#1803=CARTESIAN_POINT('',(0.0557479862144937,0.0225549862827567,-0.0065));
#1804=CARTESIAN_POINT('',(0.0557479862144937,0.0225549862827567,-0.0065));
#1805=CARTESIAN_POINT('',(0.0617020770952169,0.0200880668388095,-0.0065));
#1806=CARTESIAN_POINT('',(0.0617020770952169,0.0200880668388095,-0.0065));
#1807=CARTESIAN_POINT('',(0.0493540159630091,0.0195494885210706,-0.0065));
#1808=CARTESIAN_POINT('',(0.0492863606523298,0.0214778296472788,-0.0065));
#1809=CARTESIAN_POINT('',(0.0492863606523298,0.0214778296472788,-0.0065));
#1810=CARTESIAN_POINT('',(0.0493540159630091,0.0195494885210706,-0.0065));
#1811=CARTESIAN_POINT('',(0.0525171734334117,0.0214778296472788,-0.0065));
#1812=CARTESIAN_POINT('',(0.0557479862144937,0.0214778296472788,-0.0065));
#1813=CARTESIAN_POINT('',(0.0557479862144937,0.0214778296472788,-0.0065));
#1814=CARTESIAN_POINT('',(0.0525171734334117,0.0214778296472788,-0.0065));
#1815=CARTESIAN_POINT('',(0.0557479862144937,0.0220164079650178,-0.0065));
#1816=CARTESIAN_POINT('',(0.0557479862144937,0.0220164079650178,-0.0065));
#1817=CARTESIAN_POINT('',(-0.00468266225106437,0.,-0.0065));
#1818=CARTESIAN_POINT('',(0.0442402847061252,0.0497177961569717,-0.006));
#1819=CARTESIAN_POINT('',(0.0442402847061252,0.0537552317790283,-0.006));
#1820=CARTESIAN_POINT('',(0.0442402847061252,0.0537552317790283,-0.006));
#1821=CARTESIAN_POINT('',(0.0442402847061252,0.0497177961569717,-0.006));
#1822=CARTESIAN_POINT('',(0.0451046811159389,0.0537552317790283,-0.006));
#1823=CARTESIAN_POINT('',(0.0459690775257526,0.0537552317790283,-0.006));
#1824=CARTESIAN_POINT('',(0.0459690775257526,0.0537552317790283,-0.006));
#1825=CARTESIAN_POINT('',(0.0451046811159389,0.0537552317790283,-0.006));
#1826=CARTESIAN_POINT('',(0.0459690775257526,0.0514628977790452,-0.006));
#1827=CARTESIAN_POINT('',(0.0459690775257526,0.0491705637790622,-0.006));
#1828=CARTESIAN_POINT('',(0.0459690775257526,0.0491705637790622,-0.006));
#1829=CARTESIAN_POINT('',(0.0459690775257526,0.0514628977790452,-0.006));
#1830=CARTESIAN_POINT('',(0.0507588332896887,0.0491705637790622,-0.006));
#1831=CARTESIAN_POINT('',(0.0555485890536249,0.0491705637790622,-0.006));
#1832=CARTESIAN_POINT('',(0.0555485890536249,0.0491705637790622,-0.006));
#1833=CARTESIAN_POINT('',(0.0507588332896887,0.0491705637790622,-0.006));
#1834=CARTESIAN_POINT('',(0.0555485890536249,0.0522791524994407,-0.006));
#1835=CARTESIAN_POINT('',(0.0555485890536249,0.0553877412198193,-0.006));
#1836=CARTESIAN_POINT('',(0.0555485890536249,0.0553877412198193,-0.006));
#1837=CARTESIAN_POINT('',(0.0555485890536249,0.0522791524994407,-0.006));
#1838=CARTESIAN_POINT('',(0.0578762245897124,0.0553877412198193,-0.006));
#1839=CARTESIAN_POINT('',(0.0602038601257999,0.0553877412198193,-0.006));
#1840=CARTESIAN_POINT('',(0.0602038601257999,0.0553877412198193,-0.006));
#1841=CARTESIAN_POINT('',(0.0578762245897124,0.0553877412198193,-0.006));
#1842=CARTESIAN_POINT('',(0.0602038601257999,0.0505340508773672,-0.006));
#1843=CARTESIAN_POINT('',(0.0602038601257999,0.0505340508773672,-0.006));
#1844=CARTESIAN_POINT('',(-0.00468266225106437,0.,-0.006));
#1845=CARTESIAN_POINT('',(0.0169252369947586,0.0544924301798576,-0.0047));
#1846=CARTESIAN_POINT('',(0.0197034968328489,0.0544924301798576,-0.0047));
#1847=CARTESIAN_POINT('',(0.0197034968328489,0.0544924301798576,-0.0047));
#1848=CARTESIAN_POINT('',(0.0169252369947586,0.0544924301798576,-0.0047));
#1849=CARTESIAN_POINT('',(0.0197034968328489,0.052289412768622,-0.0047));
#1850=CARTESIAN_POINT('',(0.0197034968328489,0.0500863953573863,-0.0047));
#1851=CARTESIAN_POINT('',(0.0197034968328489,0.0500863953573863,-0.0047));
#1852=CARTESIAN_POINT('',(0.0197034968328489,0.052289412768622,-0.0047));
#1853=CARTESIAN_POINT('',(0.0255392523106266,0.0500863953573863,-0.0047));
#1854=CARTESIAN_POINT('',(0.0255392523106266,0.0500863953573863,-0.0047));
#1855=CARTESIAN_POINT('',(-0.00468266225106437,0.,-0.0047));
#1856=CARTESIAN_POINT('',(0.0302826579903171,0.033612158077777,-0.0065));
#1857=CARTESIAN_POINT('',(0.0302826579903171,0.0331567752449199,-0.0065));
#1858=CARTESIAN_POINT('',(0.0302826579903171,0.0331567752449199,-0.0065));
#1859=CARTESIAN_POINT('',(0.0302826579903171,0.033612158077777,-0.0065));
#1860=CARTESIAN_POINT('',(0.0302826579903171,0.0340675409106342,-0.0065));
#1861=CARTESIAN_POINT('',(0.0302826579903171,0.0340675409106342,-0.0065));
#1862=CARTESIAN_POINT('',(0.0309502691408474,0.0331567752449199,-0.0065));
#1863=CARTESIAN_POINT('',(0.0316178802913776,0.0331567752449199,-0.0065));
#1864=CARTESIAN_POINT('',(0.0316178802913776,0.0331567752449199,-0.0065));
#1865=CARTESIAN_POINT('',(0.0309502691408474,0.0331567752449199,-0.0065));
#1866=CARTESIAN_POINT('',(0.0316178802913776,0.0355119693587211,-0.0065));
#1867=CARTESIAN_POINT('',(0.0316178802913776,0.0378671634725223,-0.0065));
#1868=CARTESIAN_POINT('',(0.0316178802913776,0.0378671634725223,-0.0065));
#1869=CARTESIAN_POINT('',(0.0316178802913776,0.0355119693587211,-0.0065));
#1870=CARTESIAN_POINT('',(0.0340761958804662,0.0378671634725223,-0.0065));
#1871=CARTESIAN_POINT('',(0.0365345114695547,0.0378671634725223,-0.0065));
#1872=CARTESIAN_POINT('',(0.0365345114695547,0.0378671634725223,-0.0065));
#1873=CARTESIAN_POINT('',(0.0340761958804662,0.0378671634725223,-0.0065));
#1874=CARTESIAN_POINT('',(0.0365345114695547,0.0371827681014247,-0.0065));
#1875=CARTESIAN_POINT('',(0.0365345114695547,0.036498372730327,-0.0065));
#1876=CARTESIAN_POINT('',(0.0365345114695547,0.036498372730327,-0.0065));
#1877=CARTESIAN_POINT('',(0.0365345114695547,0.0371827681014247,-0.0065));
#1878=CARTESIAN_POINT('',(0.0393029036246047,0.036498372730327,-0.0065));
#1879=CARTESIAN_POINT('',(0.0420712957796546,0.036498372730327,-0.0065));
#1880=CARTESIAN_POINT('',(0.0420712957796546,0.036498372730327,-0.0065));
#1881=CARTESIAN_POINT('',(0.0393029036246047,0.036498372730327,-0.0065));
#1882=CARTESIAN_POINT('',(0.0420712957796546,0.0337691917828382,-0.0065));
#1883=CARTESIAN_POINT('',(0.0420712957796546,0.0310400108353493,-0.0065));
#1884=CARTESIAN_POINT('',(0.0420712957796546,0.0310400108353493,-0.0065));
#1885=CARTESIAN_POINT('',(0.0420712957796546,0.0337691917828382,-0.0065));
#1886=CARTESIAN_POINT('',(0.044636318730934,0.0310400108353493,-0.0065));
#1887=CARTESIAN_POINT('',(0.044636318730934,0.0310400108353493,-0.0065));
#1888=CARTESIAN_POINT('',(0.0224772233639831,0.0313786397387446,-0.0065));
#1889=CARTESIAN_POINT('',(0.0224772233639831,0.0331567752449199,-0.0065));
#1890=CARTESIAN_POINT('',(0.0224772233639831,0.0331567752449199,-0.0065));
#1891=CARTESIAN_POINT('',(0.0224772233639831,0.0313786397387446,-0.0065));
#1892=CARTESIAN_POINT('',(0.0219274358878616,0.0331567752449199,-0.0065));
#1893=CARTESIAN_POINT('',(0.02137764841174,0.0331567752449199,-0.0065));
#1894=CARTESIAN_POINT('',(0.02137764841174,0.0331567752449199,-0.0065));
#1895=CARTESIAN_POINT('',(0.0219274358878616,0.0331567752449199,-0.0065));
#1896=CARTESIAN_POINT('',(0.02137764841174,0.033612158077777,-0.0065));
#1897=CARTESIAN_POINT('',(0.02137764841174,0.0340675409106342,-0.0065));
#1898=CARTESIAN_POINT('',(0.02137764841174,0.0340675409106342,-0.0065));
#1899=CARTESIAN_POINT('',(0.02137764841174,0.033612158077777,-0.0065));
#1900=CARTESIAN_POINT('',(0.0258301532010285,0.0340675409106342,-0.0065));
#1901=CARTESIAN_POINT('',(0.0258301532010285,0.0340675409106342,-0.0065));
#1902=CARTESIAN_POINT('',(-0.00468266225106437,0.,-0.0065));
#1903=MECHANICAL_DESIGN_GEOMETRIC_PRESENTATION_REPRESENTATION('',(#1204),
#1904);
#1904=(
GEOMETRIC_REPRESENTATION_CONTEXT(3)
GLOBAL_UNCERTAINTY_ASSIGNED_CONTEXT((#1905))
GLOBAL_UNIT_ASSIGNED_CONTEXT((#1908,#1907,#1906))
REPRESENTATION_CONTEXT('Part 1','TOP_LEVEL_ASSEMBLY_PART')
);
#1905=UNCERTAINTY_MEASURE_WITH_UNIT(LENGTH_MEASURE(1.E-8),#1908,
'DISTANCE_ACCURACY_VALUE','Maximum Tolerance applied to model');
#1906=(
NAMED_UNIT(*)
SI_UNIT($,.STERADIAN.)
SOLID_ANGLE_UNIT()
);
#1907=(
NAMED_UNIT(*)
PLANE_ANGLE_UNIT()
SI_UNIT($,.RADIAN.)
);
#1908=(
LENGTH_UNIT()
NAMED_UNIT(*)
SI_UNIT($,.METRE.)
);
#1909=PRODUCT_DEFINITION_SHAPE('','',#1910);
#1910=PRODUCT_DEFINITION('','',#1912,#1911);
#1911=PRODUCT_DEFINITION_CONTEXT('',#1918,'design');
#1912=PRODUCT_DEFINITION_FORMATION_WITH_SPECIFIED_SOURCE('','',#1914,
 .NOT_KNOWN.);
#1913=PRODUCT_RELATED_PRODUCT_CATEGORY('','',(#1914));
#1914=PRODUCT('Part 1','Part 1','Part 1',(#1916));
#1915=PRODUCT_CATEGORY('','');
#1916=PRODUCT_CONTEXT('',#1918,'mechanical');
#1917=APPLICATION_PROTOCOL_DEFINITION('international standard',
'ap242_managed_model_based_3d_engineering',2020,#1918);
#1918=APPLICATION_CONTEXT('managed model based 3d engineering');
ENDSEC;
END-ISO-10303-21;
